<?xml version="1.0" encoding="utf-8"?>
<!-- Generator: Adobe Illustrator 21.0.0, SVG Export Plug-In . SVG Version: 6.00 Build 0)  -->
<svg version="1.1" id="Layer_1" xmlns="http://www.w3.org/2000/svg" xmlns:xlink="http://www.w3.org/1999/xlink" x="0px" y="0px"
	 viewBox="0 0 500 500" style="enable-background:new 0 0 500 500;" xml:space="preserve">
<style type="text/css">
	.st0{fill:#1DA363;}
	.st1{fill:#FFFFFF;}
</style>
<title>rmrp</title>
<g id="Layer_1-2">
	<rect class="st0" width="500" height="500"/>
</g>
<g>
	<path class="st1" d="M127.3,248.6l46.9,26.7l42.9,24.6c3.6,2,8.1-1.2,7.5-5.4l-4.2-29.4c92.2-37.2,138.6,19.5,157.1,62.6
		c-11.8-56.3-91.8-134.7-167.9-139l-4.1-29.5c-0.6-4.3-6-5.7-8.6-2.2l-33.8,40.3l-36.9,43.9C124.1,243.3,124.7,247.1,127.3,248.6z"
		/>
	<path class="st1" d="M247,303.4l21.4,11.5l19.6,10.6c1.7,0.9,3.6-0.7,3.2-2.7l-2.5-13.4c37.5-17.4,72.1,1.5,82.9,24.6
		c-6.1-31.5-55.3-58.8-89.3-59.5l-2.5-13.5c-0.3-2-2.8-2.6-3.9-0.8l-14.1,19L246.4,300C245.5,301,245.8,302.8,247,303.4z"/>
	<path class="st1" d="M309.4,338.7l11.3,3.3l10.3,3c0.9,0.2,1.8-0.6,1.5-1.6l-1.9-6.1c17.9-12,26.8-9.3,36.1,4.1
		c-4.1-15.1-24.1-23-41-19.9l-2-6.2c-0.3-0.9-1.5-1-2,0l-6.1,10.5l-6.7,11.4C308.5,337.7,308.7,338.5,309.4,338.7z"/>
</g>
</svg>
