<?xml version="1.0" encoding="utf-8"?>
<!-- Generator: Adobe Illustrator 21.0.0, SVG Export Plug-In . SVG Version: 6.00 Build 0)  -->
<svg version="1.1" id="Layer_1" xmlns="http://www.w3.org/2000/svg" xmlns:xlink="http://www.w3.org/1999/xlink" x="0px" y="0px"
	 viewBox="0 0 500 500" style="enable-background:new 0 0 500 500;" xml:space="preserve">
<style type="text/css">
	.st0{fill:#F47523;}
	.st1{fill:#FFFFFF;stroke:#000000;stroke-width:0.25;stroke-miterlimit:10;}
	.st2{fill:#FFFFFF;}
</style>
<g id="Layer_1-2">
	<rect class="st0" width="500" height="500"/>
</g>
<g>
	<path class="st1" d="M353.9,283.1c-1.5-3.2-4.5-5.6-8-6.3c-0.6-3-1.6-5.9-3-8.6l1.4-1.6c5.1-6.4,1.8-15.5-6.9-17.7
		c-3.8-3.6-8.2-6.5-13-8.7c-3.5-1.7-2.1-1-5.4-2.6c-0.9-4.3-1.1-14.1-2.6-21.1c-1.2-6.3-3.8-10.8-7.6-13.7c-1.5-3.4-3.7-6.5-6.4-9.2
		c12.1-18.6,15.4-37,6.4-46.6c-4-4.3-9.9-6.4-16.9-6.4c-9.9,0-22.1,4.1-34.4,11.5l-8.2-6.5c-34.3-26.9-131.1,92.2-97,118.3l8.8,6.7
		c-5.6,15.5,2.2,33.8,18.2,39.7c3.6,1.3,7.5,1.9,11.4,1.7c0,0,26,47.6,80.7,47.6c63.3,0,79.4-61.9,79.6-62.5
		C351.3,297,356.5,289.4,353.9,283.1L353.9,283.1z M155.2,255.9c-6.9-11.8,5.1-35.7,13.7-49.5c21.2-33.8,56.6-60.5,72.6-56.7
		l4.5-1.7l12,10.2c8.3-5,18.9-10,28.7-11.1c-6,1.3-13.4,4.5-22,9.8c-0.2,0.1-20.6,13.8-33,26.2c-6.7,6.7-33.9,39.3-33.9,39.2
		c4.9-9.4,8.2-14,16.1-23.9c4.5-5.6,9.2-11,14-16c2.3-2.4,4.6-4.6,6.8-6.7c1.6-1.4,3.1-2.8,4.7-4.2l2.2-1.8l0,0l-15.9-13.2l0.9,5.9
		l11.6,10.2c0,0-10.2,6.9-15.4,11.3c-20.5,17.4-40.5,44.2-48,70.3h0.4c-4.3,2.5-7.9,5.8-10.7,9.8
		C164.6,263.8,156.3,257.8,155.2,255.9L155.2,255.9z M188.9,304.8c-12.2,0-22.2-10.4-22.2-23.3c0-12.9,10-23.3,22.2-23.3
		c3.1,0,6.2,0.7,8.9,2c0,0,4.7,2.4,6.1,13.6c0.9-2.1,1.5-4.2,2.1-6.4c1.6,4.8,2.4,10,2.1,15.1c1-1.6,2-3.2,2.7-5
		C213.2,291.6,202.8,304.8,188.9,304.8L188.9,304.8z M216.2,222.4c7.4-12.5,17.9-22.8,30.4-30.1c-2-0.1-4.1,0-6.1,0.3
		c3.8-3.2,10.9-5.5,15.7-6.4c-1.4-0.9-4.8-1.1-6.5-1.2h-1c4.6-2.6,13.1-4.1,20.9-2.7c-0.9-1.3-3.2-2.3-4.7-2.7l-0.8-0.2l0.6-0.1
		c4.6-0.9,10.1,0.1,14.4,1.8c-0.7-1.2-1.5-2.4-2.6-3.3l-0.7-0.5c4.4,0.9,8.4,2.7,12,5.1c-0.7-1.1-1.4-2.2-2.3-3.1
		c4.3,1.2,9.1,4.3,11.2,8.7l0.2,0.5c-8.2-6.3-31.9-4.6-55.8,11C231.7,205.6,223.3,213.3,216.2,222.4L216.2,222.4z M345,293.9
		c-0.3,0.6-3.3,16.8-20.5,30.3c-21.7,17.1-50.2,15.3-61,5.8c-3.7-3.7-6.5-8.2-8.2-13.1c0,0-0.7,4.4-0.8,6.1c-4.4-7.4-4-16.4-4-16.4
		s-2.3,4.3-3.4,6.7c-1.9-5.3-2.5-11-1.5-16.5l-2.6,3.8c0,0-1.2-9.2,1.7-16.9c3.1-8.2,9.1-14.1,10.3-14.9c-4.6-1.4-9.9-5.6-9.9-5.6
		c1.2,0.1,2.4,0,3.5-0.2c0,0-9.3-6.6-10.9-16.8c1.2,1.3,2.7,2.6,4.2,3.5c-0.9-2.7-1.4-8.5-0.6-14.3l0,0
		c1.5-10.5,10.6-18.4,21.2-18.2c11,0.1,18.4,2.4,27.7-6.1c2-1.8,3.5-3.3,6.3-4c0.8-0.3,1.6-0.4,2.5-0.4c1.5,0,2.9,0.4,4.3,1.1
		c5,2.9,6.1,10.8,6.6,16.5c2,21.1,1.2,17.3,9.8,21.7c4.1,2.1,8.6,4.1,13.9,9.7l0,0h0.1c4.4,0.1,6.6,3.6,4.6,6.1
		c-14.8,17.6-35.5,26.1-58.4,26.8l-3.1,0.1c-9.3,0.3-12.3,12.3-6.4,19.5c3.7,4.6,10.8,6.1,16.6,6.1h0.1
		c25.1,0.5,50.4-17.3,54.8-27.1l0.3-0.7c-1,1.2-25.5,24.3-55.3,23.4c-2.1-0.1-4.3-0.4-6.4-0.8c-4.1-0.9-7.1-2.7-8.2-6.7
		c3,0.6,6.2,0.9,9.2,0.9c21.5,0,37-9.8,35.4-9.9h-0.3c-2.5,0.6-28.3,10.6-44.7,5.5l0.3-1.4c1.4-4.8,4.1-4.2,8.2-4.4
		c12.4-0.4,24.6-3.2,35.9-8.5c9.6-4.6,17-10.4,19.5-13.4c3.4,5.8,3.4,13.2,3.4,13.2c1-0.3,2.1-0.5,3.1-0.5
		C348,283.8,349.2,288.9,345,293.9L345,293.9z M241,157.4l2.9,0.9l-2.4-8.6l-1.4,4.4L241,157.4z M249.1,164l-10-3l6.6,5.6
		C246.7,165.8,247.8,165,249.1,164L249.1,164z M254.3,160.6l-4.8-4.1l1.8,6.2L254.3,160.6z M274.6,247.8c2,0.8,3.3,1.3,3.7,0.9
		c0.2-0.2,0.1-0.8-0.4-1.4c-1.4-1.9-3.4-3.3-5.7-4.1c-4.9-1.7-10.3-0.8-14.4,2.5c-2,1.6-2.9,3.3-2,3.5c0.6,0.1,1.8-0.4,3.4-1
		C265.9,245.6,269.6,245.9,274.6,247.8L274.6,247.8z M275.4,253.8c1.2,0.1,2.1,0.2,2.3-0.2c0.5-0.8-2.8-3.2-7.3-2.5l-1.6,0.4
		l-0.6,0.2c-1.1,0.4-2.1,1-2.9,1.8c-1,1-1.3,2-1,2.2c0.3,0.2,1-0.1,2.2-0.6C269.2,254,272.4,253.5,275.4,253.8L275.4,253.8z
		 M196.9,273.5c1.1,1.6,0.8,2.7,1.2,3.1c0.2,0.2,0.5,0.2,0.7,0.1c0.7-0.3,0.9-1.3,1-2.1l0,0c0-1.9-0.7-3.8-2-5.1l0,0
		c-1.8-2.1-4.3-3.4-7-3.8c-2-0.3-4-0.2-5.9,0.3l0,0l-1.2,0.4c-7,2.7-10,9.6-8.6,16.4c0.3,1.7,1.1,3.4,2.3,4.7l0,0
		c1.4,1.5,3,1.2,2.4-0.2c-0.8-1.6-1.1-3.3-1.1-5c-0.2-3.1,0.7-6.2,2.6-8.6c0.9-1.1,2.1-2.1,3.4-2.7l0.8-0.4l0.4-0.1l1.3-0.4
		C191.8,269.2,195.3,271.3,196.9,273.5z M194.7,278.5c-0.4-0.3-0.7-0.7-0.9-1.1c-0.3-0.8,0-1.5,0.7-2c0.6-0.4,1-0.6,1-0.9
		c0-0.5-1.9-0.9-3.3,0.4c-1.3,1.7-1.2,4.2,0.3,5.7c2,2.2,5.2,2.7,5.7,5.5l0.1,1.2l-0.2,1.2c-0.6,2.7-3.1,5.2-7.3,4.6
		c-0.8-0.1-1.2-0.2-1.4,0c-0.3,0.5,1.4,2.5,4.7,2.4c4.6-0.1,8.5-4.8,7.6-10.1C201,280.8,196.3,279.9,194.7,278.5L194.7,278.5z"/>
	<ellipse transform="matrix(0.154 -0.9881 0.9881 0.154 12.5778 512.1225)" class="st2" cx="305.3" cy="248.7" rx="3.1" ry="2.3"/>
	
		<ellipse transform="matrix(0.4808 -0.8768 0.8768 0.4808 -68.0511 389.8862)" class="st2" cx="295.2" cy="252.4" rx="2.7" ry="3.6"/>
	<path class="st1" d="M298.5,239.3c2.5-0.2,4.8,0.2,7.1,1.2c-0.2-6-3.7-12.8-6.3-11.9l0,0c-1.5,0.5-1.8,3.2-1.8,4.8
		C297.6,235.5,298,237.4,298.5,239.3L298.5,239.3z M249.1,164l-10-3l6.6,5.6C246.7,165.8,247.9,165,249.1,164L249.1,164z
		 M274.7,247.8c2,0.8,3.3,1.3,3.7,0.9c0.2-0.2,0.1-0.8-0.4-1.4c-1.4-1.9-3.4-3.3-5.7-4.1c-4.9-1.7-10.3-0.8-14.4,2.5
		c-2,1.6-2.9,3.3-2,3.5c0.6,0.1,1.8-0.4,3.4-1C265.9,245.6,269.6,245.9,274.7,247.8L274.7,247.8z M275.4,253.8
		c1.2,0.1,2.1,0.2,2.3-0.2c0.5-0.8-2.8-3.2-7.3-2.5l-1.6,0.4l-0.6,0.2c-1.1,0.4-2.1,1-2.9,1.8c-1,1-1.3,2-1,2.2
		c0.3,0.3,1-0.1,2.2-0.6C269.2,254,272.4,253.5,275.4,253.8L275.4,253.8z M196.9,273.5c1.1,1.6,0.8,2.7,1.2,3.1
		c0.2,0.2,0.5,0.2,0.7,0.1c0.7-0.3,0.9-1.3,1-2.1l0,0c0-1.9-0.7-3.8-2-5.1l0,0c-1.8-2.1-4.3-3.4-7-3.8c-2-0.3-4-0.2-5.9,0.3l0,0
		l-1.2,0.4c-7,2.7-10,9.6-8.6,16.4c0.3,1.7,1.1,3.4,2.3,4.7l0,0c1.4,1.5,3,1.2,2.4-0.2c-0.8-1.6-1.1-3.3-1.1-5
		c-0.2-3.1,0.7-6.2,2.6-8.6c0.9-1.1,2.1-2.1,3.4-2.7l0.8-0.4l0.4-0.1l1.3-0.4C191.8,269.2,195.3,271.3,196.9,273.5z M194.7,278.5
		c-0.4-0.3-0.7-0.7-0.9-1.1c-0.3-0.8,0-1.5,0.7-2c0.6-0.4,1-0.6,1-0.9c0-0.5-1.9-0.9-3.3,0.4c-1.3,1.7-1.2,4.2,0.3,5.7
		c2,2.2,5.2,2.7,5.7,5.5l0.1,1.2l-0.2,1.2c-0.6,2.7-3.1,5.2-7.3,4.6c-0.8-0.1-1.2-0.2-1.4,0c-0.3,0.5,1.4,2.5,4.7,2.4
		c4.6-0.1,8.5-4.8,7.6-10.1C201,280.8,196.3,279.9,194.7,278.5L194.7,278.5z"/>
	<ellipse transform="matrix(0.154 -0.9881 0.9881 0.154 12.5778 512.1225)" class="st1" cx="305.3" cy="248.7" rx="3.1" ry="2.3"/>
	
		<ellipse transform="matrix(0.4808 -0.8768 0.8768 0.4808 -68.0511 389.8862)" class="st1" cx="295.2" cy="252.4" rx="2.7" ry="3.6"/>
</g>
</svg>
