<?xml version="1.0" encoding="utf-8"?>
<!-- Generator: Adobe Illustrator 21.0.0, SVG Export Plug-In . SVG Version: 6.00 Build 0)  -->
<svg version="1.1" id="Layer_1" xmlns="http://www.w3.org/2000/svg" xmlns:xlink="http://www.w3.org/1999/xlink" x="0px" y="0px"
	 viewBox="0 0 500 500" style="enable-background:new 0 0 500 500;" xml:space="preserve">
<style type="text/css">
	.st0{fill:#2FA2DC;}
	.st1{fill:#FFFFFF;}
</style>
<title>10_IMD</title>
<g id="Layer_1-2">
	<rect class="st0" width="500" height="500"/>
</g>
<g>
	<path class="st1" d="M225.8,141.3c21.8,0,40.7,12.6,50.7,31.1c3.6-1.2,7.3-1.8,11.1-1.8c16.6,0,30.6,11.5,35.1,27.2
		c29.5,2.9,52.7,28.8,52.7,60.5c0,33.5-26,60.8-58.1,60.8H182.7c-32.1,0-58.1-27.2-58.1-60.8c0-28.1,18.3-51.8,43.2-58.7
		C168.9,167.2,194.5,141.3,225.8,141.3 M226.4,138.9c-32.6-0.1-60.2,24.1-64.4,56.5c-33.7,12.4-50.9,49.8-38.6,83.4
		c9.4,25.5,33.7,42.5,60.9,42.6h131.2c35.9,0,65-29.1,65-65c0-31.5-22.6-58.5-53.6-64c-8.1-18.2-27.5-28.7-47.2-25.6
		C267.6,149.4,247.7,138.9,226.4,138.9L226.4,138.9z"/>
	<g>
		<path class="st1" d="M248.6,214.6c-0.6-0.3-0.8-0.9-0.5-1.5c0.1-0.2,0.2-0.3,0.4-0.4l18.4-15.4c0.8-0.6,1.8-0.7,2.6-0.2l30.4,19.9
			c0.5,0.3,0.8,1,0.5,1.5c-0.1,0.2-0.2,0.3-0.4,0.4l-18.4,15c-0.8,0.6-1.8,0.6-2.7,0.2L248.6,214.6z"/>
		<path class="st1" d="M282.2,237.8c-0.8-0.6-1.8-0.7-2.6-0.2L250.8,255c-0.6,0.3-0.7,1.1-0.4,1.6c0.1,0.1,0.1,0.2,0.2,0.3l16,13.7
			c0.8,0.6,1.8,0.7,2.7,0.2l29.1-17c0.6-0.2,0.8-0.9,0.6-1.4c-0.1-0.2-0.2-0.4-0.4-0.5L282.2,237.8z"/>
		<path class="st1" d="M248.4,258.4c-0.7-0.6-1.3-0.3-1.3,0.6v33.5c0,0.9,0.6,1.2,1.4,0.8l29.4-18.1c0.8-0.6,1.3-1.5,1.4-2.5v-3.2
			c0-0.9-0.6-1.3-1.4-0.8l-8.6,5.1c-0.9,0.4-1.9,0.4-2.7-0.2L248.4,258.4z"/>
		<path class="st1" d="M243.4,214.6c0.6-0.3,0.8-0.9,0.5-1.5c-0.1-0.2-0.2-0.3-0.4-0.4l-18.4-15.4c-0.8-0.6-1.8-0.7-2.6-0.2
			L192.2,217c-0.5,0.3-0.8,1-0.5,1.5c0.1,0.2,0.2,0.3,0.4,0.4l18.4,15c0.8,0.6,1.8,0.6,2.7,0.2L243.4,214.6z"/>
		<path class="st1" d="M209.9,237.8c0.8-0.6,1.8-0.7,2.6-0.2l28.8,17.4c0.6,0.3,0.8,0.9,0.5,1.5c-0.1,0.2-0.2,0.3-0.4,0.4l-16,13.7
			c-0.8,0.6-1.8,0.7-2.7,0.2l-29.1-17c-0.6-0.2-0.8-0.9-0.6-1.4c0.1-0.2,0.2-0.4,0.4-0.5L209.9,237.8z"/>
		<path class="st1" d="M243.6,258.4c0.7-0.6,1.3-0.3,1.3,0.6v33.5c0,0.9-0.6,1.2-1.4,0.8l-29.4-18.1c-0.8-0.6-1.3-1.5-1.4-2.5v-3.2
			c0-0.9,0.6-1.3,1.4-0.8l8.6,5.1c0.9,0.4,1.9,0.4,2.7-0.2L243.6,258.4z"/>
	</g>
</g>
</svg>
