<?xml version="1.0" encoding="utf-8"?>
<!-- Generator: Adobe Illustrator 21.0.0, SVG Export Plug-In . SVG Version: 6.00 Build 0)  -->
<svg version="1.1" id="Layer_1" xmlns="http://www.w3.org/2000/svg" xmlns:xlink="http://www.w3.org/1999/xlink" x="0px" y="0px"
	 viewBox="0 0 500 500" style="enable-background:new 0 0 500 500;" xml:space="preserve">
<style type="text/css">
	.st0{fill:#FBBD37;}
	.st1{fill:#FFFFFF;}
</style>
<g id="Layer_1_1_">
	<rect class="st0" width="500" height="500"/>
</g>
<path id="Icon" class="st1" d="M346.8,140l-62.2,10v98.4h62.2V140z M218.3,140.9l-65,10.1v97.4h65V140.9z M221.6,140.9v107.5h59.5
	V150L221.6,140.9z M196.9,162.5l18.2,43.1c1,5.6-2.7,7.6-7.1,7.1l-43.1-18.2c-5.1-3.6-3.2-7.9,0.9-10.4l16.8-4l4.1-16.8
	C189.4,157.8,193.9,159.2,196.9,162.5z M193.2,167.6l-2.4,10.4c-1.2,5-8.9,9.1-13.8,10.2l-6.8,2.6l39.6,17L193.2,167.6z
	 M153.2,251.6v97.6l65,9.9V251.6H153.2z M221.6,251.6v107.5l59.5-9.1v-98.4H221.6z M284.5,251.6V350l62.2,10V251.6H284.5z
	 M304.3,279.6l10.5,10.5l10.5-10.5l7.7,7.6l-10.5,10.6l10.5,10.5l-7.7,7.7l-10.5-10.4l-10.5,10.4l-7.7-7.7l10.5-10.5l-10.5-10.5
	L304.3,279.6z"/>
</svg>
