<?xml version="1.0" encoding="utf-8"?>
<!-- Generator: Adobe Illustrator 21.0.0, SVG Export Plug-In . SVG Version: 6.00 Build 0)  -->
<svg version="1.1" id="Layer_1" xmlns="http://www.w3.org/2000/svg" xmlns:xlink="http://www.w3.org/1999/xlink" x="0px" y="0px"
	 viewBox="0 0 500 500" style="enable-background:new 0 0 500 500;" xml:space="preserve">
<style type="text/css">
	.st0{fill:#A84247;}
	.st1{fill:#FFFFFF;}
</style>
<title>QM</title>
<g id="Layer_1-2">
	<rect class="st0" width="500" height="500"/>
</g>
<g>
	<path class="st1" d="M151.2,253.3c-0.4-0.8-0.4-1.8,0-2.6c0.7-1.6,1.6-3.3,2.4-4.8c1.8-3.4,3.5-7,5.3-10.4s3.5-7.1,5.4-10.7
		c1.8-3.4,3.4-6.8,5.2-10.3c2.4-4.6,4.7-9.3,7.1-14c1.2-2.3,2.3-4.6,3.5-6.9c0.6-1,1.1-2.1,1.5-3.2c0.2-0.9,0.3-1.9,0.5-2.8
		c0.5-2.1,0.9-4.1,1.5-6.2c1.2-4.3,2.7-8.4,4.6-12.5c2.3-5,5.1-9.7,8.4-14.2c1.8-2.4,3.7-4.8,5.8-7c1.3-1.4,2.5-2.7,3.9-4
		c1.7-1.5,3.4-3.1,5.1-4.5c2.6-2.1,5.3-4,8.1-5.8c3.9-2.4,7.9-4.6,12.1-6.3c4.3-1.8,8.7-3.3,13.3-4.4c3.2-0.8,6.5-1.4,9.8-1.8
		c2.3-0.3,4.5-0.5,6.8-0.5c3.1-0.1,6.3,0,9.4,0.2c2.1,0.2,4.1,0.4,6.2,0.7c2.3,0.3,4.6,0.7,6.8,1.3c3.6,0.9,7.2,2,10.6,3.3
		c4.6,1.8,9.1,3.9,13.4,6.4c3.5,2.1,6.9,4.5,10.2,7c0.3,0.3,0.8,0.7,1.2,1c1.9,1.6,3.8,3.1,5.7,4.8c0.7,0.6,1.2,1.3,1.8,1.9
		c1.3,1.2,2.5,2.6,3.5,4c1.6,2.3,3.2,4.6,4.8,7c2.4,3.7,4.6,7.6,6.5,11.6c2.2,4.7,3.9,9.7,5.2,14.7c0.6,2.1,1.2,5.7,1.5,7.9
		c0.4,2.6,0.6,5.2,0.7,7.8c0,0.1-0.1,0.3,0.1,0.4v7.2c-0.2,0.2-0.1,0.4-0.1,0.6c0,0.5,0,1.1,0,1.6c-0.2,1.7-0.3,3.3-0.5,4.9
		c0,1.1-0.3,2.1-0.6,3.1l-1.8,3.8l-5.8,12.6l-3.9,8.4l-5.5,11.9c-1.3,2.7-2.5,5.5-3.8,8.2l-4.8,10.5l-3.8,8.2c-2,4.3-4,8.6-5.9,12.9
		c-0.4,0.9-1,1.9-0.8,3c0.2,1.5,0.4,2.9,0.5,4.4c0.1,2.3,0.4,4.6,0.6,6.9c0.2,2,0.3,4,0.5,6c0.2,2,0.4,4,0.5,6.1l0.5,6.1l0.5,6.1
		c0.2,2,0.3,4,0.5,6.1c0.2,2.3,0.3,4.7,0.6,7c0.1,0.7,0.1,1.3,0.2,2c0.2,1.2-0.1,2.4-0.8,3.4c-0.6,0.8-1.4,1.5-2.3,1.9
		c-0.5,0.2-1.1,0.2-1.7,0c-0.7-0.1-1.4-0.1-2.1-0.1c-0.7,0-1.5,0-2.2,0c-0.8,0-1.8,0-2.7-0.1c-0.6-0.1-1.2-0.2-1.8-0.1
		c-0.7,0.1-1.5,0.1-2.2,0c-2-0.1-4-0.1-6-0.3c-0.4,0-0.9,0-1.3,0c-0.7,0-1.3-0.2-1.9-0.1c-0.8,0.1-1.7,0.1-2.5,0
		c-0.8,0-1.6-0.2-2.4-0.1c-1.4,0.1-2.7-0.1-4.1,0c-0.3,0-0.6,0-0.8,0c-0.8-0.2-1.7,0.1-2.4-0.1c-0.8-0.1-1.7-0.1-2.5-0.1
		c-0.6-0.1-1.1-0.2-1.7-0.1c-0.7,0.1-1.5,0.1-2.2,0c-2-0.1-4,0-5.9-0.3c-0.3-0.1-0.7-0.1-1,0c-0.7,0.1-1.5-0.1-2.2,0
		c-0.8,0.1-1.7,0.1-2.5,0c-0.8,0-1.7-0.1-2.5-0.1s-1.5,0-2.2,0c-0.8,0-1.8-0.1-2.7-0.1c-0.6-0.1-1.1-0.1-1.7-0.1
		c-0.8,0.1-1.6,0.1-2.4,0c-0.9,0-1.8-0.1-2.7-0.1c-0.8,0-1.5,0-2.3,0c-0.8-0.1-1.7-0.1-2.5-0.1c-0.7,0-1.5,0-2.2,0
		c-0.8-0.1-1.8,0-2.6-0.1c-0.6-0.1-1.2-0.1-1.8-0.1c-1,0.3-2-0.2-3,0.1c-0.5,0.1-1.1,0.1-1.6,0c-1-0.3-1.9,0-2.9-0.2
		c-0.8-0.1-1.6-0.1-2.4-0.1c-0.6-0.1-1.1-0.1-1.7-0.1c-0.8,0.1-1.6,0.1-2.4,0c-0.8,0-1.7-0.1-2.5-0.1c-0.8,0-1.5,0-2.2,0
		c-1.2,0-2.4-0.1-3.6-0.3c-1.2-0.2-2.2-0.9-2.8-2c-0.8-1.5-0.7-3.3-0.9-5c-0.2-1.3-0.3-2.6-0.4-4c-0.1-1.3-0.3-2.8-0.5-4.2
		c-0.1-0.8-0.2-1.8-0.3-2.7c-0.2-1.4-0.4-2.7-0.5-4.1c-0.2-1.6-0.4-3.3-0.6-4.9c-0.1-1.2-0.3-2.3-0.4-3.5c-0.1-0.8-0.2-1.7-0.3-2.5
		c-0.2-1.4-0.4-2.7-0.5-4.1c-0.1-1.4-0.3-2.6-0.4-4c-0.2-1.3-0.3-2.8-0.5-4.1s-0.3-2.5-0.4-3.8c-0.1-0.5-0.3-0.7-0.8-0.6
		c-10.7,0-21.4,0-32.2,0c-2.3,0-4.2-1.8-4.2-4.1c0,0,0,0,0,0c0-13.5,0-27,0-40.5c0-0.7-0.2-0.8-0.8-0.8c-3.7,0-7.4,0-11.1,0
		c-1.1,0-2.2-0.4-3-1.2C151.8,254.3,151.4,253.9,151.2,253.3z"/>
	<path class="st0" d="M266.6,251c-31.6,0-57.2-25.7-57.2-57.3c0-31.6,25.7-57.2,57.3-57.2s57.2,25.7,57.2,57.3l0,0
		C323.8,225.4,298.2,251,266.6,251"/>
	<path class="st1" d="M258.3,209.8c0-5.1,0.6-9.1,1.9-12.2c1.6-3.4,3.9-6.5,6.8-8.9c3.3-2.9,5.5-5.3,6.6-7.2
		c1.1-1.8,1.6-3.8,1.6-5.8c0-6.2-2.8-9.2-8.5-9.2c-2.4-0.1-4.7,0.8-6.5,2.5c-1.7,1.9-2.6,4.3-2.5,6.9h-15.8
		c0.1-6.9,2.3-12.4,6.8-16.3c4.4-3.9,10.5-5.9,18.1-5.9c7.7,0,13.7,1.9,17.9,5.6c4.2,3.7,6.4,9,6.3,15.8c0,3-0.7,6.1-2.1,8.8
		c-1.4,2.7-3.8,5.8-7.3,9.1l-4.4,4.2c-2.6,2.4-4.3,5.7-4.7,9.3l-0.2,3.3L258.3,209.8z M256.8,226.6c-0.1-2.3,0.8-4.4,2.5-6
		c3.6-3.1,9.1-3.1,12.7,0c3.3,3.3,3.3,8.6,0.1,11.9c-3.7,3.1-9.1,3.1-12.8,0C257.6,230.9,256.7,228.8,256.8,226.6z"/>
</g>
</svg>
