<?xml version="1.0" encoding="utf-8"?>
<!-- Generator: Adobe Illustrator 21.0.0, SVG Export Plug-In . SVG Version: 6.00 Build 0)  -->
<svg version="1.1" id="Layer_1" xmlns="http://www.w3.org/2000/svg" xmlns:xlink="http://www.w3.org/1999/xlink" x="0px" y="0px"
	 viewBox="0 0 500 500" style="enable-background:new 0 0 500 500;" xml:space="preserve">
<style type="text/css">
	.st0{fill:#C86029;}
	.st1{fill:#FFFFFF;}
</style>
<g id="Layer_1_1_">
	<rect class="st0" width="500" height="500"/>
</g>
<g>
	<path class="st1" d="M245.6,355.3c0,3.7-2.8,5.6-6.3,4.3l-63.6-22.8c-3.7-1.5-6.1-5-6.3-8.9v-94.2c0-3.7,2.8-5.6,6.3-4.4l63.6,22.8
		c3.7,1.4,6.1,4.9,6.3,8.9V355.3z"/>
	<path class="st1" d="M254.4,355.3c0,3.7,2.8,5.6,6.3,4.3l63.6-22.8c3.6-1.5,6.1-4.9,6.3-8.9v-94.2c0-3.7-2.8-5.6-6.3-4.4
		l-63.7,22.9c-3.7,1.5-6.1,4.9-6.3,8.9L254.4,355.3z"/>
	<path class="st1" d="M240.2,241.8c3,2,2.7,2.8-0.8,1.5l-63.7-22.8c-4.1-1.5-8-3.6-11.7-6L128.1,190c-3-2-2.6-2.8,0.8-1.5l63.6,22.8
		c4.1,1.5,8,3.6,11.8,6L240.2,241.8z"/>
	<path class="st1" d="M204.2,143.2c-2.8-2.8-6.9-3.9-10.6-2.7L130,163.1c-3.5,1.3-4.2,4.4-1.8,7.1l8.6,9.7c3,3.1,6.7,5.6,10.6,7.2
		l46.6,16.7c4.1,1.3,8.5,1.3,12.5,0l32.9-11.7c3.5-1.3,4.2-4.4,1.8-7.1L204.2,143.2z"/>
	<path class="st1" d="M259.8,241.8c-3,2-2.7,2.8,0.8,1.5l63.6-22.8c4.1-1.5,8-3.6,11.8-6l35.9-24.6c3-2,2.7-2.8-0.8-1.5l-63.6,22.8
		c-4.1,1.5-8,3.6-11.7,6L259.8,241.8z"/>
	<path class="st1" d="M295.8,143.2c2.8-2.8,6.9-3.9,10.6-2.7l63.6,22.6c3.5,1.3,4.3,4.4,1.8,7.1l-8.6,9.7c-3,3.1-6.6,5.6-10.6,7.2
		l-46.5,16.7c-4.1,1.3-8.4,1.3-12.4,0l-33-11.7c-3.5-1.3-4.3-4.4-1.8-7.1L295.8,143.2z"/>
</g>
</svg>
