<?xml version="1.0" encoding="utf-8"?>
<!-- Generator: Adobe Illustrator 21.0.0, SVG Export Plug-In . SVG Version: 6.00 Build 0)  -->
<svg version="1.1" id="Layer_1" xmlns="http://www.w3.org/2000/svg" xmlns:xlink="http://www.w3.org/1999/xlink" x="0px" y="0px"
	 viewBox="0 0 500.3 500.3" style="enable-background:new 0 0 500.3 500.3;" xml:space="preserve">
<style type="text/css">
	.st0{fill:#0185BC;stroke:#231F20;stroke-width:0.25;stroke-miterlimit:10;}
	.st1{fill:#FFFFFF;}
</style>
<g id="Layer_1-2">
	<rect x="0.1" y="0.1" class="st0" width="500" height="500"/>
</g>
<g>
	<path class="st1" d="M248.9,229.7c15.9,0,29.3-5.7,40.6-16.9c11-10.6,17.1-25.3,16.8-40.6c0.2-15.3-5.9-30-16.8-40.6
		c-11.2-11.2-24.7-16.7-40.6-16.7s-29.4,5.5-40.5,16.7c-11.3,11.2-16.8,24.8-16.8,40.6s5.6,29.3,16.8,40.6
		C219,223.8,233.6,229.9,248.9,229.7z"/>
	<path class="st1" d="M173.6,231.3l53.1,54.4v74h-0.4v0.3h-43.5v-32l-44.4-58.6c-1.8-2.2-2.9-5-2.9-7.8v-90.1
		c0-7,5.8-12.8,12.8-12.8s12.8,5.8,12.8,12.8v52c-3.2,0.6-6.1,2.1-8.4,4.2c-6.8,6.6-6.9,17.5-0.3,24.3l24.2,24.9l3.3-3.3l-24.2-24.8
		c-4.8-5-4.7-13,0.2-17.9c1.5-1.4,3.4-2.5,5.4-3.1c2.1-0.6,4.2-0.7,6.3-0.2C169.9,228.4,172,229.6,173.6,231.3z"/>
	<path class="st1" d="M328.1,231.3L275,285.7v74h0.4v0.3h43.5v-32l44.3-58.6c1.8-2.2,2.9-5,2.9-7.8v-90.1c0-7-5.8-12.8-12.8-12.8
		c-7,0-12.8,5.8-12.8,12.8v52c3.2,0.6,6.1,2.1,8.4,4.2c6.8,6.6,6.9,17.5,0.4,24.3l-24.2,24.9l-3.3-3.3l24.2-24.8
		c4.8-5,4.7-13-0.3-17.9c-1.5-1.4-3.4-2.5-5.4-3.1c-2.1-0.6-4.2-0.7-6.3-0.2C331.8,228.4,329.7,229.6,328.1,231.3z"/>
</g>
</svg>
