<?xml version="1.0" encoding="utf-8"?>
<!-- Generator: Adobe Illustrator 21.0.0, SVG Export Plug-In . SVG Version: 6.00 Build 0)  -->
<svg version="1.1" id="Layer_1" xmlns="http://www.w3.org/2000/svg" xmlns:xlink="http://www.w3.org/1999/xlink" x="0px" y="0px"
	 viewBox="0 0 500.3 500.3" style="enable-background:new 0 0 500.3 500.3;" xml:space="preserve">
<style type="text/css">
	.st0{fill:#AA1F23;}
	.st1{fill:#FFFFFF;}
</style>
<g id="Layer_1-2">
	<rect x="0.1" y="0.1" class="st0" width="500" height="500"/>
</g>
<path class="st1" d="M251.1,180.5c-7.6-8.6-51.4-38.3-111.3-8v166.3h90.8c3.1,3.1,10.6,5.4,19.2,5.4c8.7,0,16-2.2,19.2-5.4h91.3
	V172.4C302.8,142.7,256.8,174.2,251.1,180.5z M243,328.5c0-5.7-42.6-39-91.8-2.6V184.8c9.8-6.5,22.9-10.6,37.3-10.6
	c30.1,0,54.5,11.6,54.5,33.1L243,328.5z M349.6,325.9c-49.2-36.4-91.8-3-91.8,2.6V207.3c0-21.5,24.4-33.1,54.4-33.1
	c14.5,0,27.6,4,37.3,10.6L349.6,325.9z"/>
</svg>
