<?xml version="1.0" encoding="utf-8"?>
<!-- Generator: Adobe Illustrator 21.0.0, SVG Export Plug-In . SVG Version: 6.00 Build 0)  -->
<svg version="1.1" id="Layer_1" xmlns="http://www.w3.org/2000/svg" xmlns:xlink="http://www.w3.org/1999/xlink" x="0px" y="0px"
	 viewBox="0 0 500.3 500.3" style="enable-background:new 0 0 500.3 500.3;" xml:space="preserve">
<style type="text/css">
	.st0{fill:#227038;}
	.st1{fill:#FFFFFF;}
</style>
<g id="Layer_1-2">
	<rect x="0.1" y="0.1" class="st0" width="500" height="500"/>
</g>
<g>
	<path class="st1" d="M370.6,248.4L370.6,248.4c-0.8,20-7.5,41.5-18,61.5c0,0-24.9,50.3-103,50.3s-103.4-50-103.4-50
		c-10.4-20-16.8-41.5-17.6-61.9h0.1c0-0.6-0.1-1-0.1-1.6c0-9.6,5.9-18.5,16.1-26.3l10.9,7c-6.7,4.5-10.6,9.6-10.6,14.9
		c0,18.9,46.9,34.2,104.6,34.2s104.6-15.2,104.6-34.2c0-13.1-22.5-24.4-55.4-30.1l0.2-13.7c42.3,8.3,71.7,26.7,71.7,48.3
		C370.6,247.4,370.6,247.9,370.6,248.4z"/>
	<path class="st1" d="M168.8,167.1c-0.4,3.2-0.9,8.4,3,15.3c4.9,8.5,11.2,11.4,13.2,12.8c-0.4-2.2,0.3-8.7-4.3-16.7
		c-4-7.2-8.3-10.3-10.8-12.7c-7.2-10.4-15.4-18.8-21.6-25.4l-14.9-15.2c0,0,5.3,6.2,14.2,15.9C153.7,147.9,161.7,156.6,168.8,167.1z
		"/>
	<path class="st1" d="M205.9,248.5c3.2,3,7.2,7.9,16.1,12.8c10,5.6,18.4,5.6,21.3,6.2c-1.6-2.6-4.8-10.8-15.8-16.9
		c-9-5-15.8-4-20-3.3c-13.6-7.9-25.3-16-34.7-21.8c-13.5-8.3-22.2-12.5-22.2-12.5s8.5,4.7,21.6,13.4
		C181.2,232.3,192.5,240.5,205.9,248.5z"/>
	<path class="st1" d="M213.9,205.2c-1,3.7-2.6,9.6,0.8,18.4c4.1,10.7,11.1,15.2,13.3,17.1c0-2.6,1.8-10.1-2.1-20
		c-3.5-8.9-8-13.4-10.6-16.7c-6.8-13.4-15-24.5-21.3-33.1l-15.1-20.3l14.3,20.8C199.3,180.2,207.4,191.6,213.9,205.2z"/>
	<path class="st1" d="M188.5,226.8c3,2.6,6.9,7.2,15.2,11.6c9.4,5,17.2,4.8,19.9,5.3c-1.5-2.4-4.7-9.9-15.2-15.3
		c-8.5-4.4-14.8-3.5-18.6-2.7c-12.9-7.2-23.9-14.5-32.8-19.9c-12.7-7.5-20.9-11.4-20.9-11.4c0.1,0,8,4.2,20.3,12.2
		C165.2,212.1,175.8,219.7,188.5,226.8z"/>
	<path class="st1" d="M170.4,205.5c2.8,2.4,6.5,6.6,14.3,10.4c8.8,4.4,16.1,4.1,18.5,4.6c-1.5-2.2-4.6-9-14.3-13.9
		c-5.3-2.8-11.4-3.7-17.2-2.3c-12-6.4-22.3-13.2-30.6-18c-11.9-6.9-19.5-10.4-19.5-10.4s7.4,3.9,19,11.1
		C148.6,192.2,158.6,198.9,170.4,205.5z"/>
	<path class="st1" d="M151.9,174.4c5.3,4.7,10.4,5,13.2,5.9c-0.7-2.4-0.1-8-6.1-13.4c-3.7-3.1-8.3-4.9-13.1-5
		c-14-12-28.8-22.9-44.4-32.7l-0.9-0.7c-0.2,0.2,20.6,13.8,45,35.1C146.6,167.9,148.7,171.6,151.9,174.4z"/>
	<path class="st1" d="M151.6,184.5c2.6,2.3,6,5.9,13.3,9.5c8.1,4,14.8,3.6,17.1,4c-1.4-2-4.3-8.1-13.3-12.5
		c-4.9-2.5-10.5-3.2-15.9-2c-11.1-5.7-20.6-12-28.3-16.2c-10.9-6.3-18.1-9.4-18.1-9.4s7,3.4,17.6,10.1
		C131.4,172.3,140.6,178.5,151.6,184.5z"/>
	<path class="st1" d="M191.9,185.6c-0.8,3.5-1.8,9,2,16.8c4.5,9.6,11.2,13.3,13.4,15c-0.2-2.4,0.9-9.3-3.3-18.4
		c-3.9-8-8.2-11.9-10.8-14.7c-7.1-11.9-15.2-21.6-21.6-29.3l-15.1-17.9l14.3,18.4C177.1,163.5,185.1,173.5,191.9,185.6z"/>
	<path class="st1" d="M275.5,206c-4,3.8-6.7,8.8-7.3,14.4c-1.5,9.9,1.8,16.1,2.4,18.5c1.1-2,5.7-6.9,7.2-16.2
		c1.2-8.3-0.3-13.5-0.8-17.1c0.7-13-0.8-24.8-1.9-34.1c-1.6-13.4-2.8-21.7-2.8-21.7l2,21.7C275.2,181,276.3,193,275.5,206z"/>
	<path class="st1" d="M267.8,183.9c-3.6,3.8-5.6,8.6-5.8,13.7c-0.8,9.2,2.6,14.8,3.5,16.9c0.9-1.9,4.9-6.8,5.6-15.4
		c0.7-7.7-1-12.5-1.8-15.7c-0.2-12-2.2-22.9-3.7-31.3l-3.7-20l2.9,20C266.1,160.8,267.9,171.8,267.8,183.9z"/>
	<path class="st1" d="M258.9,162.2c-3,3.7-4.6,8.3-4.5,13c-0.1,8.6,3.4,13.5,4.3,15.4c0.7-1.8,4-6.6,4.1-14.6
		c0.1-7.2-1.7-11.4-2.6-14.3c-0.8-11-3.3-20.9-5.3-28.6l-4.5-18.1l3.9,18.2C255.9,141.2,258.2,151.1,258.9,162.2z"/>
	<path class="st1" d="M274.7,263.3c1.3-2,6.7-6.9,8.9-16.8c2-8.8,0.7-14.5,0.4-18.4c1.6-13.9,0.8-26.7,0.2-36.7
		c-0.9-14.5-1.7-23.5-1.7-23.5l0.8,23.5c0.4,10.1,0.8,23.2-0.9,37c-4.6,3.8-7.8,9-8.8,15C271,253.8,274,260.7,274.7,263.3z"/>
	<path class="st1" d="M230.2,148c1.1,2.4,2.2,6.4,6.2,11.3c4.4,5.6,9.4,7.5,10.9,8.6c-0.4-1.9-0.3-7.4-5.2-13.6
		c-2.6-3.5-6.5-5.8-10.8-6.7c-6-7.9-10.6-15.6-14.7-21.3c-5.6-8.3-9.7-12.9-9.7-12.9s3.8,4.8,9.1,13.2
		C220,132.5,224.4,140.1,230.2,148z"/>
	<path class="st1" d="M234,140.8c2.2,5.3,5.7,7.2,7.4,8.8c0.4-1.9,2.7-5.9,0.3-11.9c-1.5-3.5-4.2-6.3-7.6-8
		c-5.8-13.4-12.7-26.4-20.5-38.7l-0.5-0.8c7.3,13.2,14,26.7,20,40.7C232.4,134.2,232.7,137.7,234,140.8z"/>
	<path class="st1" d="M242.9,182.2c4.8,6.1,10.2,8.4,11.8,9.4c-0.3-2.1-0.1-8.1-5.4-14.9c-2.8-3.9-7-6.5-11.7-7.3
		c-6.4-8.7-11.5-17-15.7-23.2c-6.1-8.9-10.4-14-10.4-14s4,5.3,9.8,14.4c4,6.3,8.8,14.6,15,23.3C237.5,172.5,238.7,176.6,242.9,182.2
		z"/>
	<path class="st1" d="M248.8,141.2c-2.4,3.6-3.6,7.9-3.2,12.2c0.6,7.8,4,12,5,13.7c0.6-1.7,3.2-6.3,2.7-13.6
		c-0.4-6.5-2.4-10.3-3.3-12.9c-1.5-10-4.4-18.8-6.6-25.8l-5.3-16.2c0,0,1.7,6.3,4.6,16.4C244.6,122.1,247.4,131,248.8,141.2z"/>
	<path class="st1" d="M241.9,191.4c1.2,3,2.4,7.5,6.9,13.6c5.1,6.8,10.7,9.2,12.5,10.4c-0.3-2.3,0-8.8-5.5-16.3
		c-2.9-4.2-7.4-7.2-12.4-8.2c-6.8-9.5-12.1-18.5-16.6-25.3c-6.5-9.8-11-15.2-11-15.2s4.2,5.7,10.4,15.7
		C230.2,172.9,235.3,181.9,241.9,191.4z"/>
	<path class="st1" d="M176.3,250.9c0,0,7.4,4.2,19.1,12.5l2.4,0.6C191,259.3,183.7,254.9,176.3,250.9z"/>
	<path class="st1" d="M269.6,267.4c-1.5-2.4-3.3-4.5-5.4-6.3c-0.7-1.7-1.2-3.2-1.9-4.6c4,4,7.6,6,9,7.2v-0.7
		c0.5,1.6,0.9,3.2,1.4,4.9l2.3-0.2c-1.3-4.7-2.8-9.2-4.5-13.6c-0.7-2.6-1.7-5.2-3.1-7.5c-1.4-3.4-2.9-6.7-4.3-9.8
		c1.8,1.2,3.2,2.1,4,2.6c-0.3-2.4,0.4-9.6-5.5-17.7c-2.4-3.7-5.9-6.4-10.1-8l-9.2-17.9c0,0,3,6.5,8.2,17.5c-0.8-0.3-1.5-0.5-2.2-0.7
		c-7.1-10.4-12.6-20.1-17.4-27.6c-6.8-10.5-11.6-16.6-11.6-16.6s4.5,6.2,10.9,16.9c4.4,7.4,9.7,17.2,16.5,27.5
		c1.2,3.2,2.4,8.1,7.1,14.7c1.9,2.6,4.1,5,6.6,7.1c0.8,1.8,1.7,3.7,2.4,5.6c-2.9-2.9-6.6-5-10.6-6c-0.8-1.2-1.5-2.4-2.3-3.6
		c-4.5-9.8-9.4-18.4-13.6-25.6c-9-15.7-14.9-25.4-14.9-25.4l13.8,25.9c1,2,2.2,4,3.3,6.2c-1.5-2.5-2.9-5-4.3-7.2
		c-7.1-11.4-12.1-17.8-12-17.8c0,0,4.7,6.7,11.3,18.4c4,6.9,8.4,15.5,14,24.9c2.4,5.5,4.8,11.3,6.9,17.5c-0.7,1.5-1.3,3.1-1.8,4.7
		c-6.2-10.6-11.2-20.4-15.8-28c-1.4-2.5-2.8-4.7-4-6.8c-5.6-11.7-12.1-21.7-17.4-29.8c-9.1-14.1-15.1-22.8-15.1-22.8l14.1,23.2
		c6,10,13.9,22.9,20,37.8c-1.4,3.9-3.5,10.2-0.5,19.8c3.7,11.8,10.8,17,13,19.4c0.2-2.6,2.4-9.8-0.2-19.9c1.6,3,3.3,6.2,5.2,9.4
		c-0.9,4.6-0.8,9.4,0.5,14c5.8,0,11.6-0.3,17.3-0.7C269.8,267.7,269.7,267.6,269.6,267.4z"/>
	<path class="st1" d="M187.2,245.5c-14.2-9.1-23.5-13.7-23.4-13.7c0,0,8.9,5.1,22.9,14.6c8.1,5.6,17.9,12.9,29.2,20.3
		c1.4,0.2,2.8,0.3,4.2,0.4C207.4,259.2,196.3,251.3,187.2,245.5z"/>
	<path class="st1" d="M289.6,251.1c2.6-14.8,2.4-28.6,2.4-39.3l-0.5-25.3c0,0-0.3,9.7-0.5,25.2c-0.3,10.8-0.5,24.8-3.4,39.6
		c-3.1,2.4-7.8,6.2-10.5,15.2c-0.1,0.3-0.1,0.6-0.2,0.8c4-0.4,8-0.8,12-1.4C290.3,259.5,289.7,254.6,289.6,251.1z"/>
</g>
</svg>
