<?xml version="1.0" encoding="utf-8"?>
<!-- Generator: Adobe Illustrator 21.0.0, SVG Export Plug-In . SVG Version: 6.00 Build 0)  -->
<svg version="1.1" id="Layer_1" xmlns="http://www.w3.org/2000/svg" xmlns:xlink="http://www.w3.org/1999/xlink" x="0px" y="0px"
	 viewBox="0 0 500.3 500.3" style="enable-background:new 0 0 500.3 500.3;" xml:space="preserve">
<style type="text/css">
	.st0{fill:#C24B7A;}
	.st1{fill:#FFFFFF;}
</style>
<g id="Layer_1-2">
	<rect x="0.1" y="0.1" class="st0" width="500" height="500"/>
</g>
<path class="st1" d="M294,145.2c-7.2-5.9-12.3-4.5-19.6,8.4c-4.8,8.6-12.4,9.6-17.1,9.3v-1.7c8.2-4,11.6-13.8,7.6-22
	c-4-8.2-13.8-11.6-22-7.6c-8.2,4-11.6,13.8-7.6,22c1.6,3.3,4.3,6,7.6,7.6v1.7c-4.7,0.3-12.3-0.8-17.1-9.3
	c-7.2-13-12.3-14.4-19.6-8.4c-7.2,6-36.1,40.3-71.1,37.2c0,0,7,15.8,25.9,12.2c0,0,10.2,10.4,26.5,3.2c0,0,8.6,7.7,22.1,0.7
	c0,0,10.1,7.7,20.8,1c0,0,6.1,4.4,12.8,3.3l0.5,39.6c-0.8-0.2-1.4-0.4-2.2-0.5c0,0-11.8-2.5-24.2-6c-12-3.1-25-8.2-27-10.8
	c0.2-0.2,0.5-0.4,0.8-0.5c1.6-0.8,3.3-1.3,5-1.6c5.4-0.9,10.8-1.5,16.3-1.6c11.9-0.4,14,0.1,14.2,0.1c0-0.4,6.9,0.8,8.8-6.2
	c-0.1-0.1,0.1-0.4,0-0.5c-0.4-4.8-4-5.1-7.2-5.6c-4.9-0.7-2.4-0.4-8.9-0.3c-10.9,0.8-44.3-1.9-48.6,15.7c0,0.4,0,0.8-0.1,1.2
	c1.5,15.3,33.2,22,56.3,26.6c-7.8,5.4-12,12.3-13.6,21.3c-0.8,9.6,6.9,18.7,24.5,28.9c-13.5,9.5-22.3,18.4-21.6,29.3
	c1.2,8.8,9,20.6,24.3,28h0.1l0,0c0,0-10.7-16.3-11.4-25.2c-0.8-5.2,2.3-12.9,15.2-22.1l0.4,32.6h0.1c0,2.7,2.2,4.9,4.9,4.9
	c2.7,0,4.9-2.2,4.9-4.9l0,0l0.5-31.7c12,8.8,14.7,16.3,14,21.3c-0.8,8.9-11.4,25.2-11.4,25.2l0,0h0.1c15.2-7.4,23.1-19.2,24.3-28
	c0.8-10.8-8.1-19.8-21.6-29.3c17.7-10.2,25.3-19.3,24.5-28.9c-1.7-9-5.8-16-13.6-21.3c23.1-4.6,54.8-11.3,56.2-26.6
	c-0.1-0.4-0.1-0.8-0.1-1.2c-4.2-17.6-37.7-14.9-48.6-15.7c-6.6-0.1-4-0.4-8.9,0.3c-3,0.6-6.7,0.8-7.1,5.6c-0.1,0.2,0.1,0.5,0,0.5
	c1.9,7,8.8,5.8,8.8,6.2c0.2,0,2.4-0.6,14.2-0.1c5.5,0.1,10.9,0.7,16.3,1.6c1.7,0.3,3.4,0.8,5,1.6c0.3,0.1,0.6,0.3,0.8,0.5
	c-1.9,2.6-15.1,7.7-27,10.8c-12.4,3.5-24.2,6-24.2,6l-0.8,0.2l0.5-39.3c6.8,1.2,12.9-3.3,12.9-3.3c10.7,6.7,20.8-1,20.8-1
	c13.6,7,22.1-0.7,22.1-0.7c16.4,7.3,26.5-3.2,26.5-3.2c18.9,3.5,25.9-12.2,25.9-12.2C330,185.5,301.3,151.2,294,145.2z M234.7,285.8
	c-4.4-2.7-6.4-6.4-6-8.8c0.3-3.5-0.9-11.7,15.4-17.7l0.4,32.8C241.2,290,237.9,287.9,234.7,285.8z M270.1,277c0.4,2.4-1.7,6.1-6,8.8
	c-2.8,1.9-5.6,3.6-8.5,5.4l0.5-31.4C271,265.7,269.9,273.6,270.1,277L270.1,277z"/>
</svg>
