<?xml version="1.0" encoding="utf-8"?>
<!-- Generator: Adobe Illustrator 21.0.0, SVG Export Plug-In . SVG Version: 6.00 Build 0)  -->
<svg version="1.1" id="Layer_1" xmlns="http://www.w3.org/2000/svg" xmlns:xlink="http://www.w3.org/1999/xlink" x="0px" y="0px"
	 viewBox="0 0 500.3 500.3" style="enable-background:new 0 0 500.3 500.3;" xml:space="preserve">
<style type="text/css">
	.st0{fill:#6F4B49;}
	.st1{fill:#FFFFFF;}
</style>
<g id="Layer_1-2">
	<rect x="0.1" y="0.1" class="st0" width="500" height="500"/>
</g>
<g>
	<path class="st1" d="M228,227.1c1.1,1.1,1.7,2.6,1.7,4c0,1.8-0.7,3.4-2,4.6c-1.4,1.4-3.1,2.2-5.1,2.5v-13.7
		C224.5,224.9,226.4,225.7,228,227.1z"/>
	<path class="st1" d="M211.1,206.9c0,1.3,0.5,2.5,1.4,3.4c1.1,1.2,2.5,2.1,4,2.6v-12.2c-1.5,0.4-2.9,1.2-3.9,2.4
		C211.7,204.2,211.2,205.5,211.1,206.9z"/>
	<path class="st1" d="M248.8,120.3c-15.6-1.8-21.1,7.9-28.9,8.3c-7.9-0.4-13.3-10-29-8.3c-16,1.8-25.8,15.4-25.8,15.4l19.6,18.2
		h70.4l19.6-18.2C274.6,135.7,264.8,122,248.8,120.3z"/>
	<path class="st1" d="M260.3,165.5h-80.9c0,0-38.8,30.6-26.1,86.9c0,0,4.2,16.2,23.7,16.2h19.1c14.6-18.3,45-21.8,64.8-22.4
		c1.9-8.2,4.6-16.1,8.4-23.6c3.9-8,8.7-15.3,14.6-22C275.7,177.6,260.3,165.5,260.3,165.5z M235.2,239c-3,2.9-7.3,4.7-12.7,5.3v6.6
		h-6v-6.4c-4.2-0.3-8.4-1.9-11.7-4.5c-3-2.6-4.9-6.1-5.8-10.7l10.9-1c0.4,1.8,1.3,3.4,2.5,4.8c1.1,1.3,2.6,2.3,4,2.9v-14.7
		c-5.4-1.3-9.4-3.3-12-5.9c-2.6-2.6-3.9-6.1-3.8-9.7c-0.1-3.7,1.5-7.3,4.3-9.6c2.9-2.6,6.7-4.1,11.5-4.5v-3.6h6v3.5
		c4.4,0.4,8,1.7,10.5,3.8c2.7,2.1,4.4,5.1,5,8.5l-10.5,1.2c-0.5-2.7-2.5-4.8-5-5.6v13.8c6.7,1.6,11.2,3.5,13.6,5.9
		c2.5,2.5,3.7,5.9,3.6,9.3C239.9,232.3,238.2,236.3,235.2,239L235.2,239z"/>
	<path class="st1" d="M326.9,263.5c-1.6,2.5-3.2,4.7-4.9,7c8.7,3.7,14.3,8.4,14.3,13.5c0,11.9-28.1,21.5-62.8,21.5
		s-62.8-9.6-62.8-21.5c0-10.1,20.7-18.7,48.5-20.8c0-2.4,0-4.8,0.3-7.4c-35.4,1.7-62.3,10.7-62.3,38.6c0,31.4,33.9,65.7,75.7,65.7
		s75.7-34.3,75.7-65.7C348.4,278.9,340.1,269.3,326.9,263.5z"/>
	<path class="st1" d="M270.4,300.5l10-16l0,0c0.8-1.6-2-1.3-4.5-2.6l0,0c-2.6-1.3-3.8-3.7-4.6-2.2l-7.1,18.1
		C263.4,299.5,268.6,304.1,270.4,300.5z"/>
	<path class="st1" d="M275.8,257.2c-9.6-12.1-4.1-20.4-4.1-20.4c-3.1,2.4-13.9,31.6-0.8,38.2C276.7,277.9,286.6,270.8,275.8,257.2z"
		/>
	<path class="st1" d="M285.7,237.7c-9.6-12.1-4-20.4-4-20.4c-3.2,2.4-13.9,31.6-0.8,38.2C286.7,258.6,296.5,251.4,285.7,237.7z"/>
	<path class="st1" d="M295.3,219c-9.7-12-4.1-20.4-4.1-20.4c-3.1,2.4-13.9,31.5-0.8,38.2C296.3,239.7,306.1,232.5,295.3,219z"/>
	<path class="st1" d="M285,282.2c13.1,6.7,30.5-19.1,30.5-23c0,0-3.5,9.4-19,8.7C279.1,266.9,279.1,279.1,285,282.2z"/>
	<path class="st1" d="M294.8,262.7c13.1,6.7,30.5-19.1,30.5-23c0,0-3.5,9.4-19,8.7C289,247.6,289,259.8,294.8,262.7z"/>
	<path class="st1" d="M304.5,243.8c13.1,6.7,30.5-19.1,30.5-23c0,0-3.5,9.4-19,8.7C298.7,228.7,298.7,240.9,304.5,243.8z"/>
	<path class="st1" d="M305.8,226.1c13.9,7.1,14.4-30,14.4-30C316.9,198.1,291.9,219.1,305.8,226.1z"/>
</g>
</svg>
