<?xml version="1.0" encoding="utf-8"?>
<!-- Generator: Adobe Illustrator 21.0.0, SVG Export Plug-In . SVG Version: 6.00 Build 0)  -->
<svg version="1.1" id="Layer_1" xmlns="http://www.w3.org/2000/svg" xmlns:xlink="http://www.w3.org/1999/xlink" x="0px" y="0px"
	 viewBox="0 0 500.2 500.2" style="enable-background:new 0 0 500.2 500.2;" xml:space="preserve">
<style type="text/css">
	.st0{stroke:#231F20;stroke-width:0.25;stroke-miterlimit:10;}
	.st1{fill:#FFFFFF;}
</style>
<g id="Layer_1-2">
	<rect x="0.1" y="0.1" class="st0" width="500" height="500"/>
</g>
<g>
	<polygon class="st1" points="179.4,296.2 161,277.8 222.5,277.8 222.5,339.3 204.1,320.9 165.3,359.6 140.6,335 	"/>
	<polygon class="st1" points="335,359.6 359.6,335 320.9,296.2 339.3,277.8 277.8,277.8 277.8,339.3 296.2,320.9 	"/>
	<polygon class="st1" points="359.6,165.3 335,140.6 296.2,179.4 277.8,161 277.8,222.4 339.3,222.5 320.9,204 	"/>
	<polygon class="st1" points="161,222.5 222.4,222.5 222.5,161 204.1,179.4 165.3,140.6 140.6,165.3 179.4,204 	"/>
	<path class="st1" d="M250.1,233.8c-9,0-16.3,7.3-16.3,16.4c0,9,7.3,16.3,16.4,16.3s16.3-7.3,16.3-16.4l0,0
		C266.5,241.1,259.2,233.8,250.1,233.8z"/>
</g>
</svg>
