<?xml version="1.0" encoding="utf-8"?>
<!-- Generator: Adobe Illustrator 21.0.0, SVG Export Plug-In . SVG Version: 6.00 Build 0)  -->
<svg version="1.1" xmlns="http://www.w3.org/2000/svg" xmlns:xlink="http://www.w3.org/1999/xlink" x="0px" y="0px"
	 viewBox="0 0 500 500" style="enable-background:new 0 0 500 500;" xml:space="preserve">
<style type="text/css">
	.st0{fill:#FBBD37;}
	.st1{fill:#FFFFFF;}
</style>
<g id="Layer_1">
	<title>activityinfo</title>
	<g id="Layer_1-2">
		<rect class="st0" width="500" height="500"/>
	</g>
</g>
<g id="Layer_2">
	<g>
		<path class="st1" d="M326.8,360H173.2c-18.3,0-33.2-14.9-33.2-33.2V173.2c0-18.3,14.9-33.2,33.2-33.2h153.6
			c18.3,0,33.2,14.9,33.2,33.2v153.6C360,345.1,345.1,360,326.8,360z"/>
		<g>
			<path class="st0" d="M273.2,327.1c8.7,0.5,20.8-0.5,33-1c6.9-0.3,12.8-2.5,16.6-8.8c2.2-3.7,2.6-7.7,2.7-11.9
				c0.4-19.3-0.6-38.7,0.6-58c0.7-11-8.6-20.5-19.4-20.7c-10.8-0.3-19.5,8.6-19.6,19.9c0,9.1,0.1,18.3,0,27.4
				c0,9.5-4.2,13.7-13.6,13.8c-7.5,0-14.9-0.1-22.4,0c-5.7,0.1-11.3-1-16.5-3.2c-13.4-5.3-24.1-23-22.4-36.8
				c2.5-20.5,20.8-38.1,44.2-33.7c11.1,2.1,21.6-5.6,23.8-16.4c1.9-9.3-5.2-20.5-15.3-23c-9-2.3-18.3-2.7-27.5-1
				c-22,4.2-39.3,14.9-51.7,33.5c-9.1,13.6-13.5,28.8-12.8,45c0.7,14,4.5,27.4,12.4,39.3c11.2,16.6,26.2,28.1,46,33.1
				C244.2,327.7,257,326.9,273.2,327.1z"/>
			<path class="st0" d="M304.7,222.9c12.1,0.2,22.1-9.5,22.3-21.6c0-0.1,0-0.1,0-0.2c-0.2-12.2-10.2-22-22.4-21.9
				c-11.9,0.1-21.5,9.7-21.9,21.6C282.7,212.9,292.5,222.8,304.7,222.9z"/>
		</g>
	</g>
</g>
</svg>
