<?xml version="1.0" encoding="utf-8"?>
<!-- Generator: Adobe Illustrator 21.0.0, SVG Export Plug-In . SVG Version: 6.00 Build 0)  -->
<svg version="1.1" id="Layer_1" xmlns="http://www.w3.org/2000/svg" xmlns:xlink="http://www.w3.org/1999/xlink" x="0px" y="0px"
	 viewBox="0 0 500 500" style="enable-background:new 0 0 500 500;" xml:space="preserve">
<style type="text/css">
	.st0{fill:#1DA363;}
	.st1{fill:#BFBFBF;}
	.st2{fill:#FFFFFF;}
</style>
<title>3w</title>
<g id="Layer_1-2">
	<rect class="st0" width="500" height="500"/>
</g>
<g>
	<g>
		<path class="st1" d="M261.4,195.3l4.9-25.8h7.5l-8.1,36.3h-7.5l-5.9-24.3l-5.9,24.3h-7.5l-8.1-36.3h7.5l4.9,25.8l6-25.8h6.3
			L261.4,195.3z"/>
	</g>
	<g>
		<path class="st2" d="M306.1,205.8h-7.5v-15.6H284v15.6h-7.5v-36.3h7.5v14.7h14.6v-14.7h7.5L306.1,205.8z"/>
		<path class="st2" d="M342.4,188.4c0.1,3.2-0.6,6.4-1.9,9.4c-1.2,2.6-3,4.7-5.4,6.2c-5,2.9-11.2,2.9-16.2,0
			c-2.4-1.5-4.3-3.6-5.5-6.2c-1.3-2.9-2-6.1-2-9.3v-1.8c-0.1-3.3,0.6-6.5,1.9-9.4c1.2-2.6,3.1-4.8,5.5-6.3c5-2.9,11.1-2.9,16.1,0
			c2.4,1.5,4.3,3.7,5.5,6.3c1.3,3,2,6.2,1.9,9.4L342.4,188.4z M334.9,186.8c0-3.8-0.7-6.7-2-8.7c-2.4-3.2-6.9-3.9-10.1-1.5
			c-0.6,0.4-1.1,1-1.5,1.5c-1.4,2-2.1,4.8-2.1,8.6v1.7c0,3.7,0.7,6.6,2,8.7c2.3,3.2,6.7,4,10,1.8c0.7-0.5,1.2-1,1.7-1.7
			c1.3-2,2-4.9,2-8.7L334.9,186.8z"/>
	</g>
	<g>
		<path class="st1" d="M261.4,248.6l4.9-25.8h7.5l-8.1,36.3h-7.5l-5.9-24.3l-5.9,24.3h-7.5l-8.1-36.3h7.5l4.9,25.8l6-25.7h6.3
			L261.4,248.6z"/>
	</g>
	<g>
		<path class="st2" d="M306.1,259.1h-7.5v-15.6H284v15.6h-7.5v-36.3h7.5v14.7h14.6v-14.7h7.5L306.1,259.1z"/>
		<path class="st2" d="M333.6,251.6h-13.1l-2.5,7.5h-8l13.5-36.3h6.9l13.6,36.3h-8L333.6,251.6z M322.5,245.5h9.1l-4.6-13.6
			L322.5,245.5z"/>
		<path class="st2" d="M371.8,228.8h-11.1v30.3h-7.5v-30.3h-11v-6.1h29.6L371.8,228.8z"/>
	</g>
	<g>
		<path class="st1" d="M261.4,301.9l4.9-25.8h7.5l-8.1,36.3h-7.5l-5.9-24.3l-5.9,24.3h-7.5l-8.1-36.3h7.5l4.9,25.8l6-25.8h6.3
			L261.4,301.9z"/>
	</g>
	<g>
		<path class="st2" d="M306.1,312.4h-7.5v-15.6H284v15.6h-7.5V276h7.5v14.7h14.6V276h7.5L306.1,312.4z"/>
		<path class="st2" d="M334.5,296.6h-14.4v9.7H337v6h-24.3V276h24.3v6.1h-16.8v8.7h14.4V296.6z"/>
		<path class="st2" d="M354.8,299.1h-6v13.3h-7.5V276h13.5c4.3,0,7.6,1,9.9,2.9c2.3,1.9,3.5,4.6,3.5,8.1c0.1,2.2-0.5,4.3-1.6,6.2
			c-1.2,1.8-2.9,3.1-4.9,4l7.9,14.8v0.3h-8L354.8,299.1z M348.8,293h6.1c1.6,0.1,3.1-0.4,4.3-1.4c1.1-1,1.6-2.5,1.5-4
			c0.1-1.5-0.4-2.9-1.5-4c-1-1-2.5-1.5-4.5-1.5h-6L348.8,293z"/>
		<path class="st2" d="M395.8,296.6h-14.4v9.7h16.9v6h-24.4V276h24.3v6.1h-16.8v8.7h14.4L395.8,296.6z"/>
	</g>
	<g>
		<path class="st1" d="M146.3,226.8h15.4c7.3,0,12.7-1.8,16.2-5.5c3.5-3.7,5.3-8.5,5.3-14.5c0-5.8-1.7-10.4-5.2-13.6
			c-3.5-3.3-8.3-4.9-14.4-4.9c-5.5,0-10.1,1.5-13.8,4.5c-3.6,2.8-5.7,7.2-5.6,11.8h-28.8c-0.1-7.3,2-14.4,6.1-20.4
			c4.3-6.2,10.2-11.1,17.1-14.1c7.6-3.4,15.9-5.2,24.2-5.1c15.3,0,27.4,3.7,36.1,11c8.7,7.3,13.1,17.4,13,30.3
			c0,6.6-2.1,13-6.1,18.3c-4.1,5.6-9.6,10-15.9,12.8c8.2,2.9,14.3,7.3,18.3,13.1c4,5.8,6,12.7,6.1,20.7c0,12.9-4.7,23.2-14.1,31
			c-9.4,7.8-21.8,11.6-37.3,11.7c-14.5,0-26.3-3.8-35.5-11.5c-9.2-7.6-13.8-17.7-13.8-30.3h28.8c-0.1,5.2,2.1,10.1,6.1,13.3
			c4.1,3.5,9.1,5.2,15.1,5.2c6.8,0,12.2-1.8,16.1-5.4c3.9-3.6,5.8-8.4,5.8-14.4c0-14.5-8-21.7-23.9-21.7h-15.2V226.8z"/>
	</g>
</g>
</svg>
