<?xml version="1.0" encoding="utf-8"?>
<!-- Generator: Adobe Illustrator 21.0.0, SVG Export Plug-In . SVG Version: 6.00 Build 0)  -->
<svg version="1.1" id="Layer_1" xmlns="http://www.w3.org/2000/svg" xmlns:xlink="http://www.w3.org/1999/xlink" x="0px" y="0px"
	 viewBox="0 0 559 158" style="enable-background:new 0 0 559 158;" xml:space="preserve">
<style type="text/css">
	.st0{fill:#F7F7F7;}
	.st1{fill:#0A72BA;}
	.st2{font-family:'Roboto-Medium';}
	.st3{font-size:22.5353px;}
	.st4{font-family:'Roboto-Light';}
	.st5{fill:none;stroke:#0A72BA;stroke-miterlimit:10;}
	.st6{fill:none;stroke:#9B9A9A;stroke-width:2;stroke-miterlimit:10;}
</style>
<rect class="st0" width="559" height="157.7"/>
<text transform="matrix(1 0 0 1 420.4919 62.124)" class="st1 st2 st3">Inter-Agency</text>
<text transform="matrix(1 0 0 1 420.4919 85.124)" class="st1 st2 st3">Coordination</text>
<text transform="matrix(1 0 0 1 420.4919 108.124)" class="st1 st4 st3">Turkey</text>
<path class="st5" d="M176.8,90L176.8,90L176.8,90L176.8,90h0.2l0,0v-0.2l0,0v-0.2h-0.2l0,0h-0.2L176.8,90L176.8,90z M187.3,103.3
	L187.3,103.3l-0.2-0.2l0,0l0,0h-0.2L187.3,103.3L187.3,103.3L187.3,103.3L187.3,103.3L187.3,103.3L187.3,103.3L187.3,103.3
	L187.3,103.3z M190.6,112.4L190.6,112.4l0.2,0.2l0,0l0,0l0,0l0,0l0,0l0,0l0,0l0,0h-0.2l0,0h-0.2L190.6,112.4L190.6,112.4
	L190.6,112.4L190.6,112.4L190.6,112.4L190.6,112.4z M209,117.2L209,117.2L209,117.2L209,117.2v0.5l0,0V117.2L209,117.2L209,117.2
	L209,117.2L209,117.2L209,117.2z M215.4,124.3L215.4,124.3L215.4,124.3L215.4,124.3L215.4,124.3z M214.2,124.3L214.2,124.3
	L214.2,124.3L214.2,124.3L214.2,124.3L214.2,124.3z M220.9,124.8L220.9,124.8l-0.2,0.2l0,0l0,0l0,0l0,0L220.9,124.8L220.9,124.8
	L220.9,124.8L220.9,124.8L220.9,124.8L220.9,124.8h0.2l0,0l0,0l0,0H220.9L220.9,124.8z M216.2,125L216.2,125L216.2,125L216.2,125
	L216.2,125L216.2,125L216.2,125L216.2,125L216.2,125z M219.2,125.5L219.2,125.5l-0.2,0.2l0,0L219.2,125.5L219.2,125.5L219.2,125.5
	L219.2,125.5L219.2,125.5z M218.3,125.5L218.3,125.5L218.3,125.5L218.3,125.5z M211.6,50.7L211.6,50.7L211.6,50.7v-0.2h-0.2
	L211.6,50.7L211.6,50.7L211.6,50.7L211.6,50.7L211.6,50.7L211.6,50.7v0.2V50.7L211.6,50.7z M217.6,125.3L217.6,125.3L217.6,125.3
	v-0.2l0,0l0,0l-0.2,0.2l0,0v0.2l0,0l0,0l0,0h0.2l0,0l0,0l0,0V125.3L217.6,125.3L217.6,125.3L217.6,125.3z M204,56.4L204,56.4
	l0.2-0.7l0,0l0,0l0,0l0,0H204v0.2V56.4L204,56.4z M181.3,88.6v0.5l0,0l0.2,0.2l0,0l0,0h0.2v-0.2l0,0l-0.2-0.2v-0.5v-0.3l-0.2-0.2
	l0,0l0,0v0.2V88.6L181.3,88.6z M199,118.4L199,118.4L199,118.4L199,118.4L199,118.4z M269.6,125L269.6,125L269.6,125L269.6,125z
	 M173.7,67.8v-0.5v-0.2h-0.2l0,0l0,0l0,0l0,0H173h-0.2v0.2v0.2l0.2,0.2l0.5,0.2l0.5,0.2h0.2L173.7,67.8z M193,56.6L193,56.6
	l-0.2-0.2v0.2v0.2h-0.2v0.3l0.2,0.2h0.2h0.2h0.2h0.2v-0.2l0,0l0,0h-0.2L193,56.6L193,56.6z M193.5,54.7h0.5l0.2-0.2v-0.2l-0.2-0.2
	h-0.5h-0.2l-0.2-0.2h-0.2l-0.5,0.2h-0.2v-0.2l0,0l0,0l0,0v0.2v0.2l0,0v0.2l0.2,0.2h0.2h0.2l0.2,0.2h0.2L193.5,54.7L193.5,54.7z
	 M405.9,106.9L405.9,106.9l-0.2-0.5v-0.2h-0.5V106l-0.2-0.5h-0.5H404h-0.2v-0.2l0.2-0.5v-0.2l0,0v-0.2v-0.5v-0.5v-0.3v-0.2l-0.2-0.2
	l-0.2-0.2V102v-0.2l0.5-0.2l0.2-0.2v-0.2l-0.5-0.5l-0.2-0.2l-0.2-0.2H403h-0.2h-0.2h-0.2v-0.2l0,0v-0.2l0,0l0,0l0,0l0,0l0,0
	l-0.7-0.2v-0.6v-0.2v-0.2h-0.2l-0.5-0.2h-0.2h-0.7h-0.5l-0.2-0.2v-0.2l0.2-0.2v-0.2v-0.6v-0.2v-0.2v-0.2v-0.2l0,0v-0.2l0.2-0.2v-0.2
	v-0.2v-0.2l0.2-0.2h0.2l0,0v-0.2v-0.2l0,0h0.2v-0.2v-0.2v-0.2v-0.2v-0.7l0.2-0.5l0.5-0.2l0.2-0.5v-0.2v-0.2l-0.2-0.2l1-0.2h-0.2
	h-0.2l-0.5,0.2h-0.7h-0.2l0,0v-0.2V91v-0.2v-0.5v-0.2l0.2-0.7v-0.2v-0.7v-0.7v-0.2v-0.2l0,0l0,0h-0.2h-0.2l0,0l0,0l0,0v-0.2V87v-0.2
	v-0.2l0.2-1.2v-0.5l-0.7-0.2v-1l-0.2-0.2v-1.4v-0.2v-0.2v-0.2v-0.2l0,0l0,0l0,0v-0.2l0,0l0,0l0,0l0.2-0.2l0.2-0.2v-0.2v-0.7v-0.2
	l0.2-0.5v-0.5l-0.5-0.2l-1.4-0.2l-0.2-0.2v-0.2v-0.7v-0.2l-0.2-0.2v-0.2v-0.2l0,0l0,0l-0.2-0.2v-0.2v-0.2l-0.2-0.5V75l0.2-0.2
	l0.2-0.2h0.2h0.2h0.2h0.2l0.7-0.2h0.2l1,0.5h0.2h0.2l0.7-0.2l0.2-0.2l0.2-0.2v-0.2v-0.2v-0.5l0,0l0.2-0.2V73v-0.9v-0.2v-0.2v-0.2
	l0.5-0.7v-0.2v-0.2v-0.5v-0.2l1.4-1.2h0.2l0.2,0.2l0.2,0.5l0.2,0.2l0.7,0.2l0.2,0.2l1,0.7l-0.2-0.2l-0.2-0.7v-0.2l-0.2-0.2l-0.7-1
	V68l0,0l0,0h-0.2l0,0l-0.2-0.2l-0.7-0.2h-0.2l0,0v-0.5v-0.2l-0.2-0.2l0,0v-0.2v-0.2l-0.2-0.2l-0.2-0.5l-0.7-0.7l-1.7-1l-0.5-0.2
	h-0.5l-0.7,0.2h-0.2H399h-0.2l0,0l-0.2-0.2h-0.2H398l-0.7,1h-0.2l-1.4-0.2l-1.2-0.7l-1.2-0.2l-0.7-0.5v-0.5l0.2-0.2l0.5-0.2l0.2-0.2
	v-0.2l-0.7-0.2l-0.2-0.2l0.2-0.2l-0.2-0.5l-0.5-0.7l-0.2-0.2l-0.2-0.2v-0.2v-0.2l0.2-0.7l0,0l-0.5-0.5l-0.2-0.2v-0.2l0.5-0.5
	l0.2-0.2h0.2l0,0l0,0l0,0l0,0l0,0l0,0l0,0v-0.5l0.2-0.2l0.5-0.7V55l0,0l0.2-0.5v-0.2v-1.2v-1v-0.2l-0.5-0.7v-0.5v-0.5V50v-0.2
	l-0.2-0.2l-0.5-0.5l-0.5-0.5l-0.5-0.2h-0.5l-0.2-0.2l-0.2-0.5v-0.6v-0.5l0.2-0.5l-0.2-0.5l-0.2-0.2l-0.2-0.2H389h-0.5l-1.2,0.2
	l-0.2-0.2l-0.2-0.7l-0.2-0.2h-0.2h-0.2h-0.2l0.7-0.2l0.2-0.2l0.2-0.2l0,0h-0.5l-0.5-0.2l-0.7-0.7l-1-0.5l-0.2-0.2l-0.5-0.7l0,0l0,0
	l0,0l0,0l0,0l-0.7-0.5l0,0v-0.2v-0.2l0,0h-0.2l-0.2,0.2h-0.2l-0.2-0.2l-0.2-0.2v-0.2l0.2-0.2v-0.2v-0.2v-0.2v-0.2v-0.2h-0.2
	l-1.7-0.2h-0.7h-0.2l-0.2,0.2l-0.2,0.2v0.7l-0.2,0.2l-0.2,1l-0.5,0.5l-0.2,0.2h-0.2l-2.1-1H375h-0.2l-0.2-0.2h-0.2h-0.2H373h-0.2
	h-0.2h-0.2h-0.2l-0.5,0.2l-1-0.2l-0.5,0.2l-0.2,0.2l-0.5,0.5l-0.5,0.5l0,0h-0.2l-0.5-0.5H368h-0.5h-0.2l0,0v-0.2V41l0,0l0,0
	l-0.2,0.2h-0.5h-0.2l-1.4-0.5l-0.2,0.2l-0.8,0.2h-0.2v0.5l-0.2,0.2l-0.2,0.2h1.2h-0.2h-0.5h-0.2l-0.2,0.2H363l-1.2,1h-0.2h-0.2h-0.2
	l-0.2,0.2l-0.5,0.5l-0.5,0.5l-0.2,0.2h-0.2h-0.2h-0.2l-0.5,0.2h-0.2l-0.5-0.2h-0.2h-0.2l-1,0.7l-0.7,1h-0.2h-0.2H355h-0.2v1
	l-0.5,0.2h-0.2h-0.5l-0.5-0.2l-2.1,1.4l-0.5,0.2l-0.2,0.2l-0.5,0.2h-0.2l-0.5,0.2h-0.2H348l-0.2-0.5l-0.7-0.7h-0.2l-0.7,0.2
	l-0.2,0.2h-0.2h-0.2l-0.7-0.5l0,0h-0.2h-0.2l-0.2-0.2h-0.2l-0.2,0.2h-0.2h-0.5l-0.5-0.2l-0.7-0.7l-0.7-0.7l-0.2-0.2l-0.7-0.2h-0.2
	l0,0l0,0l0,0l-0.7,0.5h-0.2h-0.2l-0.2,0.2H338h-0.2l-0.5-0.2H337h-0.5h-0.2l-0.2,0.2l0,0l-1,0.2h-1.4h-0.2l-0.2,0.2l-0.2,0.5l-1,0.2
	h-0.2l0,0l0,0l-0.2,0.2h-0.2h-0.2l0,0l0,0h-0.2h-0.2v0.7l0,0l-0.2-0.2l0,0h-0.2l-0.5,0.2h-0.2l-0.5,0.5l-0.2,0.2h-1h-0.2h-0.2
	l-0.5-0.2l-0.5,0.2H326l-0.5-0.7h-0.2h-0.5h-0.2l-0.5-0.2h-0.7l-1.4-0.5h-0.5l-0.5,0.2l-0.2-0.5l-0.2-0.2l-0.2-0.2l-0.7-0.2
	l-0.2-0.2v-1h-0.2l0,0l-0.2,0.2h-0.2l-0.2-0.2l0,0l-0.2,0.2l-0.2,0.2l-0.2,0.2h-0.2l-0.2,0.5v0.2l0,0H317l0,0h-0.2h-0.5H316
	l-0.2-0.2l0,0l-0.5-0.2l-0.5-0.2l-0.2-0.2h-0.2h-0.2H314h-0.2l-0.2-0.2l-0.5-0.2h-1.7H311l-0.5-0.2h-0.2h-0.2v-0.2v-0.7l-0.2-0.5
	l-0.5-0.2l-1.9-1l-0.7-1h-1h-0.2h-0.2h-0.2l-0.2,0.2l0,0v0.2l0,0l0,0l-0.5,0.2v0.2v0.2l-0.7,0.5l-0.5,0.2h-0.2h-0.2l0,0h-0.2h-0.2
	l0,0l-0.2-0.5l0,0h-0.2h-0.2l0,0v-0.2v-0.2V43l0,0h-0.2l-0.7-0.2l-0.2-0.2l-0.5-0.7l-0.2-0.2l-0.5-0.7l-0.2-0.2v-0.2v-0.5l0,0v-0.2
	v-0.2V39l-0.2-0.5l-1-1.2l0,0v0.2l-0.7-0.7l0,0h-0.2l-0.2,0.2l-0.2,0.2v0.5v0.5l0,0V38l0.2-0.5v-0.4h0.2l0,0l0,0l0,0l0,0h-0.2
	l-0.5,0.5h-0.2h-0.2l-1.7-0.2l-0.7,0.2l-0.5,0.2h-0.2H292h-0.5l-0.5-0.2l-0.7-0.2l-0.2-0.2l-0.2-0.2h-0.5l-0.7-0.2l-0.2-0.2
	l-0.5-0.5l-0.5-0.2l-0.2-0.2l-0.2-0.2v-0.2h0.2l0,0l-0.7-0.5l-0.5-0.5l-0.2-0.7v-0.2v-0.2v-0.5v-0.5V32l0.2-0.2h0.2h0.7l0,0
	l-0.2-0.2l0,0h-0.2h-0.2l-0.2,0.2H286h-0.5l-0.5-0.7l0.2-0.2l0,0v-0.2l0,0l-0.2-0.2v-0.2l0,0l0,0l0,0l0,0h-0.2h-0.5h-0.2v0.5
	l-0.2,0.5l-0.5,0.5l-0.5,0.2l-0.5,0.5h-0.2l-0.7,0.2h-0.7h-1.7l-0.5-0.2l-0.2-0.2h-0.2h-0.5l-1.2,0.5l-4.1-0.5l-1.7,0.2l-0.2-0.2
	h-0.2l-2.6-0.2l-0.7-0.2h-0.2h-1.4l-1-0.2h-0.5l-1.9,1.2l-1.9,0.7l-0.5,0.5l-0.5,0.2l-1,0.2h-0.2l-0.2,0.2h-0.5H257h-0.2h-0.2
	l-0.7,0.2h-0.2l-0.2-0.2H255l-0.2,0.2l-0.2,0.2h-0.2l0,0h-0.2H254l-1,0.5l-0.2,0.2l-0.2,0.2h-0.2l0,0v-0.2l0,0l0,0l0,0l0,0h-0.2l0,0
	l0,0h-0.7L251,36l-0.2,0.5l0,0l-1,1.4l-0.2,0.5l-0.2,0.2l-1.2,0.5H248l-0.5,0.5l-1.4,0.7l-2.6,1.7l-1.9,0.7h-0.2l0,0l-0.2,0.2l0,0
	h-0.5H240l-0.2,0.2v0.2l0.2,0.2l0,0v0.2v0.2v0.2v0.2v0.2v0.2l-0.2,0.2l-0.7,0.7l-0.5,0.2l-0.5,0.2l0,0l0,0l0,0l0,0l0,0h-0.2l0,0
	h-0.5h-0.2H237h-0.2h-0.2l-0.2,0.5h-3.1h-1.2l-0.2-0.2l-0.5-0.5l-4.1-1l-0.5-0.2h-0.5l-0.2-0.2h-0.2v0.5l0,0l0,0v0.2v0.2l0,0h-0.2
	l-0.2,0.2H225h-0.2h-3.1l-3.3-0.5l-2.4-0.5l-2.4-0.5h-0.2h-0.7l0,0h-0.5l-0.5,0.2l-0.5,0.5l-0.2,0.5l0.2,0.2v0.7l-0.2,0.2l-0.2,0.7
	l-0.2,0.2l-0.2,0.2l-0.2,0.2v0.2V48v0.2h0.2l0,0l0,0l0,0l0,0l0.7,0.5l0.5,0.2l0.2,0.2l0.2,0.2l0.7,0.2l0.2,0.2h0.2l0.2,0.2l0.2,0.2
	l0.2,0.2l0,0l0,0l0,0l0,0l0,0h-0.2v0.8l0,0l0,0l0,0l0,0h0.2h0.2l0,0l0,0l0,0h0.2l0,0l0,0v0.2l0,0l0,0l0,0l0,0h0.2v0.2v0.2v0.4h0.2
	h0.2l0.2-0.2h0.2l2.9-0.2h0.2l0.5,0.2h0.2l0,0l0.2,0.2h0.2h0.2l0,0l0,0l0,0l1-0.2h0.5l0.2,0.5l-0.2,0.2h-0.2l-0.2,0.2h-1.4l-2.4,0.5
	h-0.2v-0.2l-0.2-0.2h-0.2H216h-0.2h-0.2l0,0v0.2v0.2h-0.2h-0.2l0,0H215l0,0v-0.2l0,0l0,0l-0.2,0.2l-0.5,0.2l-0.5,0.2l-3.6,0.2H210
	l-0.5,0.5l-0.5,0.2l-1,0.2l-0.5,0.2l-0.2,0.5l0.7,0.2l1.2,0.7l0.7,0.2h0.2l0.2-0.2l0,0h0.7h0.2l0.2,0.2l0.2,0.2l0.2,0.2h-0.2h-0.2
	h-0.2H211v0.2v0.5v0.2l-0.5,0.5h-0.2h-1h-0.2H209l-0.2-0.2h-0.2h-0.2h-0.5l-0.5-0.2h-0.2H207l-0.2,0.2h-0.7l0,0l-0.2,0.2l0,0l0,0
	l0,0l0,0l0,0l-0.5-0.2l-0.5-0.2h-0.5l-0.5,0.2V58l0,0l0,0h0.2h-1.2h-0.7l-2.9,0.2l-1,0.5h-1l-0.5-0.2V58l0.2-0.2l1.2-0.5l0.2-0.5
	l-0.2-0.2l-1.2-0.5l-2.1-0.2l0,0l0,0l0,0l0,0l0,0l-0.2-0.2l-0.2,0.2l0,0l0,0h-0.2l-0.2,0.2h-0.2h-0.2l0,0v0.2l0.3,0.8l0,0l0,0l0,0
	l0,0v0.2l0,0l0,0v0.2l0,0l0,0l0,0v0.2v0.2l0,0h0.2l0.7,0.2h0.2l-0.2,0.2l-0.7,0.2L194,59h-0.2h-0.5H193l-0.2,0.2h-0.2l-0.2-0.2h-0.2
	H192l-0.5,0.2h-0.2h-0.2l-1-0.2v-0.2l-0.7-0.5l-0.5-0.5l0,0l0,0l0,0l0,0l0,0l0.2-0.2l-0.2-0.5l-0.2-0.2l-0.2-0.2H188l-0.5,0.2h-0.2
	h-0.5h-0.5h-0.5l-0.5,0.2l-0.2,0.5l-0.2,0.2h-0.2H184l-0.2-0.2h-0.2H183h-1.2h-0.5l-0.2,0.2l-1.4,1.7l-0.2,0.2h-0.2l0,0l0,0
	l-0.5,0.7l0.2,0.7h-0.5l-0.2,0.2H178h-0.2l0,0l0,0v0.2v0.2v0.4v0.2v0.2l0,0l0,0h-0.2l0,0l0,0l0,0l0,0l0,0v0.2v0.4v0.2l-0.5,0.5h-0.2
	l-0.5,0.2l-0.2,0.2l-0.7-0.2l0,0l-0.2,0.5v0.2v0.2v0.2v0.2v0.2v0.2l0,0l-0.2,0.7v0.2h0.2v0.5v0.5v0.7l0,0l0,0l0,0v0.2v0.2l0.2,0.5
	v0.2v1v0.5l-0.5,0.5l-0.2,0.7l-0.2,1v0.2l0.5,0.2h0.5l0.2-0.5h0.2l0,0l0,0l0,0v-0.2h0.2h0.2h0.2h0.7h0.2l0,0l0.5-0.2h0.2l-0.2-0.2
	h0.2l4.5-0.7l0.2,0.2h0.2l0.2-0.2l0.2-0.2h0.5l0.2,0.2v0.2v0.2l-0.2,0.7v0.3l0,0l0,0h-0.7l-0.2,0.2l0.2,0.2l-0.2,0.2H183h-0.5v0.2
	l0,0l0,0l0,0l0,0l0,0l-1.4,1l-0.2,0.2h-0.2h-0.2v0.2v0.2l0,0l0,0l0,0h-0.2l0,0h0.2l0,0l0,0h-0.2v0.2v0.2l-0.2,0.2h0.2h0.2h0.7h0.2
	v0.2v0.2v0.6v0.2l0.7,0.5h0.2l0.5,0.2l0.2,0.2l0.2,0.5l0.2,0.5v0.2l-0.2,0.2H183l-0.2,0.2V80l-0.2,0.2h0.2l0,0l0,0l-0.2,0.2v0.5v0.5
	l0.2,0.2h0.2l0.2,0.2h0.2h0.2l0.5-0.2l0.2-0.2l0.2,0.2l0,0l0,0h0.2l0,0l0.2,0.2l0,0h0.2h0.2h0.2l0.2-0.2l0.2,0.2V82l-0.2,0.5h0.2
	v0.6l-0.2,0.2l-0.2-0.2v0.2l-0.2,0.2h-0.2h-0.2l0.2,0.5l-0.2,0.2h-0.2V84l-0.5,0.2l0,0l0.2,0.5v-0.2v0.2v0.2l0,0v0.2l0,0l0,0l0,0
	h-0.2v0.2H184l0,0l-0.2-0.2h-0.2h-0.2l0,0l0,0l0,0l0,0l-0.5,0.2l-1-0.5l-0.2,0.2v0.2v0.2l0.2,0.5h-0.2l0,0l0,0l0,0l0.2,0.2h0.2h0.2
	l0,0v0.2l0,0h0.2h0.2h0.2l0,0v0.2h0.2h0.2l0,0l0.2,0.2v0.2v0.5v0.7h0.2l0.2,0.2l0.2,0.2l0.2,0.2l0,0h-0.2l-0.2-0.2l-0.2-0.2
	l-1.2-0.5l0.5,0.3l0.2,0.2h0.2h0.2h0.2l0.5,0.7l0.2,0.2v0.2l0,0l0.2-0.2l0.7-0.2h0.2l0.2,0.2l0,0h0.5h0.2l0,0l0,0l0,0h0.2l0,0
	l-0.2,0.5l-0.2,0.2l-0.2,0.2l-0.2-0.2l0,0l0,0h-0.2h-0.2l0,0h-0.2l0,0l-0.2,0.2l0,0h-0.2l-0.7,0.2h-1H183h-0.2h-0.2v-0.2l0,0h-0.2
	l0,0l-0.2-0.7l-0.2,0.2h-0.2l0,0l0,0h-0.2l-0.2,0.2l-0.2,0.2v0.2v0.7l0.2,0.2v0.2v0.2h-0.2l-0.2-0.2l-0.2-0.7v-0.5v-0.2v-0.2h-0.2
	v-0.2v-0.2v-0.2h-0.2h0.2h0.2h0.2l0,0l0,0l0,0l0,0v-0.2v-0.2v-0.2v-0.2v-0.2l0,0l0,0l0,0l-0.2-0.5l-0.2-0.5v-0.2l-0.2-0.2l-0.5-0.5
	l-0.2-0.2l-0.2-0.2h-0.2h-0.2h-0.2l-0.2,0.2h-0.2h-0.2v0.2v0.2v0.2l-0.5,0.7l0,0l0,0l0.2,0.5v0.3l0,0l0.5,0.5v0.2V89v0.2l0,0h0.2
	l0,0V89l0,0h0.2l0.2,0.2h0.2l0.2,0.2h0.2l-0.2,0.5l0,0l-0.2-0.2h-0.5l0,0l0.2,0.2v0.2v0.2l-0.2,0.2l0,0l-0.2,0.5h-0.2h-0.2l0,0
	l-0.2-0.2l0,0V91l0,0h-0.2h-0.2l0,0l0,0l0,0l0,0l0,0l0,0l0,0l0,0v-0.2v-0.2v-0.2v-0.2l0,0l0,0l0,0v0.2l-0.2-0.2v0.2v0.2l0.2,0.2l0,0
	h-0.2V91l-0.2,0.2l-0.7,0.5v0.4l0,0l0.7,0.2l0,0l0.5,0.2h0.2h0.2v-0.4l0,0v0.2v0.2v0.2v0.4l0.2,0.2l0,0l0,0l0,0v-0.2l0.2,0.2
	l0.2,0.2l0.2,0.2h0.2v0.2v0.2v0.2h1h0.2h0.2v-0.2v0.2l0.2,0.5l0,0h0.2v-0.2v-0.2v-0.2l0,0l0,0l0,0l0,0l0.2-1h0.2h0.7h0.2h0.2h0.2
	l0.2,0.2v0.5v0.2h0.2v0.2l0.2,0.2v-0.2v0.2v0.2v0.2v0.2l0.2,0.5l0,0l0,0l0,0l0,0l0,0l0,0h0.2h0.5h0.2l0.7,0.2h0.5l0,0V96l0,0l0,0
	l0,0l0,0h0.2l0,0l0,0l0,0l0.2,0.2h0.5h0.5h0.2l0.2,0.5v0.2l-0.2,0.2v0.2v0.8v0.2v0.2l0,0l-0.2,0.2l0,0v0.4v0.2v0.2v0.2v0.2v0.2v0.2
	v0.2l-0.2,0.5h-0.2l-1,0.5h-0.2h-1H184h1.2l0.5,0.2l1.2,0.2l0.7,0.7h0.2v0.5v0.2v0.2l-0.2-0.2v0.2l0,0l0,0l0,0v0.2v0.4v0.2v0.2v-0.2
	l0,0l0,0l0,0h0.2v0.7v0.2l0,0l0,0h-0.2v0.2v0.2v0.7v0.2l0,0l0,0l0,0l0,0l0,0l0,0l0,0l0,0l0,0l0,0v0.2l0.2-0.2h0.2h0.7l0,0l0.5-0.2
	l0,0h0.2l0.2-0.2v-0.2v-0.2h0.2h0.2h0.2l0.2,0.2l-0.2,0.2l-0.2,0.2v0.2v0.2l0.2,0.2h0.2l0.2-0.2v-0.5l0,0l0.2,0.2v0.2v0.2v0.2
	l-0.2,0.2v0.2v0.2l0,0h0.2v-0.2l0,0h0.2l0.2,0.2v0.2L191,108h0.2h0.2l0.2-0.2v0.3v-0.2h0.2h0.2l0,0l0,0l0,0l0,0l0,0h0.2l0,0v0.2l0,0
	l0,0H192l0,0v0.2l0,0h0.2l-0.2,0.2l0,0h-0.2l0.2-0.2h-0.2l-0.5,0.2l0,0h0.2v0.2v0.5l0,0l0,0h0.2l0,0h-0.2h-0.2h-0.2l0,0h-0.2
	l-0.2,0.2h-0.2h-0.2l-0.2-0.2l0,0l0,0l0,0l0,0h-0.2l0,0l0,0l0,0h-0.2l0,0l0,0v-0.1l0,0l0,0l0,0l0,0l0,0l0,0v0.2v0.2l0,0v-0.2v-0.2
	l0,0h-0.2v0.2v0.2v0.2l0,0h-0.2l-0.5-0.2l-0.2,0.2l0,0l0,0l0,0l0,0l0,0l0,0l0,0l0,0l-0.2,0.2l-0.2,0.2H188l0,0v1v0.2v0.2v0.2v0.2
	v0.2l0.2,0.2h0.2v0.2l0,0l0,0l0,0l0,0v-0.2h0.2l0.2-0.2v-0.2v-0.2l0,0h0.2h0.2l0,0l0,0l0,0l0,0l0,0l0,0l0,0l0,0l0,0l0,0l0,0l0,0l0,0
	h0.5v-0.2l0,0l0,0l0,0l0.2-0.2h0.2l0,0l0.2,0.2h0.2h0.2h0.5h0.2h0.2l0.2,0.2v-0.5h0.2l0.2,0.2l0.2,0.2l0.2-0.2l0.5-0.2h0.5l0.2,0.2
	h0.2h0.2h0.2l0,0v-0.2l0,0l0,0h0.2l1-0.2h0.2h0.5h0.2h0.2l0.2-0.2h0.2l1.4,0.2l0.2,0.2V111v-0.2h0.2h0.7l1.7-0.2h0.2l0,0l0,0l0,0
	H201l-0.7,0.2v0.2l0,0h-0.2l-0.2-0.2v0.2v0.2h0.2l0,0l0,0l-0.2,0.5l0,0l0,0l0,0l0,0l0,0l0,0l0,0l0,0l0,0l0,0l0,0l0,0l0,0v-0.2l0,0
	l0,0l0,0l-0.2-0.2h-0.2l0,0l0,0l0,0l0,0l0,0l0,0h-0.2h-0.2l0,0h0.2l0,0l0,0h-0.2l0,0l0,0l0,0l0,0l0,0l0,0h-0.2v0.2v0.2l0.2,0.2l0,0
	h-0.2l0,0l0,0l0,0l0,0l0,0l0,0l0,0l0.2,0.2v0.2l0,0l0,0l0,0h0.2h0.2l0,0v0.2l-0.2,0.2l0,0v0.2l-0.2-0.2h-0.2h-0.5h0.6h-0.2h-0.2l0,0
	h-0.2h-1.2H197l-2.1,2.4h-0.2h-0.2H194h-0.2h-0.2l-0.5-0.2h-0.2v0.2v0.2v0.2h-0.2h-0.5h-1H191l0,0h-0.2l-0.2,0.2v0.2v0.2h-0.2h-0.2
	H190h-0.2l0,0l0,0l0,0l0,0l0,0l0,0l0,0l0,0l0,0h0.2h0.2l0,0v0.2h0.2h0.2h0.2l0,0l0.2,0.2l0,0l0,0l0,0l0,0l1-0.2v0.2h0.2h0.2h0.2h0.2
	h0.2l0.5,0.2v-0.2l0.2-0.5v-0.2l0,0h0.2l0.2-0.2h0.2h0.2h0.2h0.2h0.2l0,0h0.2h0.2l0.2,0.2l0.2,0.2l0,0v-0.2l0,0l0,0l0,0l0,0l0,0l0,0
	v0.2h0.2l0.2-0.2l0,0v0.2l0,0h0.2l0.5-0.2l0.2-0.2v0.2l0,0l0.2-0.2l0.2-0.2l0,0h0.2h0.2v0.2v0.2v0.2l-0.2-0.2l0,0l0,0l0,0l0.2-0.5
	l0,0l0,0l0,0h0.2l0,0v0.2l-0.2,0.2h-0.2v-0.2h-0.2h-0.5l0,0l0,0l0,0l0,0l0,0h-0.2l0,0h-0.5l0,0v0.2h0.2h0.2l0,0l0,0h0.2h0.2l0,0
	v-0.2l0,0h0.2l0.2,0.2v0.2v0.2l-0.2,0.2l0,0l0,0l0.2-0.2l0.2,0.2l-0.2,0.2l-0.2,0.2l-0.2,0.2H197h-0.7l0,0l0,0l0,0l0,0l0,0l0,0
	l0.2,0.2h0.2h0.2l0.2-0.2v0.2l0,0h0.2h0.2l0,0l0,0l0,0l0,0l0,0l0,0l0,0h0.2l0.2-0.2l0.2-0.5l0.2-0.2l0.2-0.2l0.2-0.2l0.7-0.2l0,0
	l0,0l0,0l0,0l0,0l0,0l0,0l0,0l0,0v-0.2h0.2h0.2h0.2v-0.2l-0.5-0.5v-0.2l-0.2-0.2v-0.2v-0.2l0.2-0.2h0.2h0.2l0.2,0.2h0.2l0,0h-0.2
	h-0.2v0.2v0.2h0.2h0.2l0,0v-0.2l0,0h0.2l0.7,0.2h0.2l0.2-0.2v-0.2l0.2-0.2l-0.2-0.2l0,0l0,0l0,0l0,0l0,0l0,0h0.2h0.5h0.2v-0.2v-0.2
	l0,0l0,0v0.2l0,0l0,0l0,0l0,0l0,0l0,0l0,0v0.2v0.2h0.2h0.2l0,0h-0.2h0.2h0.2h0.2h0.2v-0.5l0.2-0.2h0.5l0.2,0.2v0.2l0,0l0,0l0,0l0,0
	v-0.2l0,0l0,0l0,0l0,0l0,0l0,0l0,0l0,0l0,0l0.2,0.2v0.2v0.2v0.2l0.2,0.5l0,0l0.2-0.2h0.2h0.2v0.2l0,0l0.5-0.2h0.5l0.5,0.2v0.5h0.2
	h0.2h0.2h0.2l0,0h-0.2l0,0v0.2l0.2,0.2h0.2h0.2h0.2v-0.2l0.2-0.2l0.2-0.2v-0.2l-0.2-0.2v0.2v0.2l0,0v0.2l0,0l0,0l-0.2-0.2l0,0l0,0
	l0,0v-0.2h0.2l0,0v-0.2v-0.2l0,0l0,0h0.2l0,0l0,0l0,0l0.2-0.2l0.2-0.2l0.2-0.2v0.2l0.2,0.2l1,0.5l0.7,0.5l0,0v0.2v0.2v0.2v0.2H211
	l0,0v-0.2l0,0h-0.2l-0.2,0.2l-0.2,0.2l-0.2-0.2v0.2v0.2l0,0l0.2,0.2v0.2v0.2h-0.2h0.2l0.7-0.2l0.2,0.2l0,0h0.2v0.2v0.5l0,0l0,0l0,0
	l-0.2,0.2l0,0h0.2l0.2,0.2v0.2v0.2l0,0l0,0l0,0l0,0h2.3h-0.2l0,0v0.2h-2.4l0,0h0.2l0,0h0.2l0,0l0,0l0,0v0.2h0.2l0.2,0.2l0.7,0.2
	l0.2,0.2v0.2l0.7,0.7l0,0l0,0v0.2l0,0l0,0l0,0l0,0l0,0l0,0l0,0l0,0h0.2l0,0l0,0l0,0l0,0v0.5v0.2l0.2-0.2l0.7,0.5h0.2h1l0.2,0.2h-0.2
	h-0.2h-0.2l0,0l0,0h0.7l0,0v0.2l0,0h-0.2l0.2,0.2l0.5,0.2v0.2l1.4,1.7l0,0h0.2l0,0l0,0l0,0h0.2h0.2h0.2l0.2,0.2l0,0l0,0h0.2l0,0l0,0
	l0,0l0,0l0,0h0.2h0.2l0.2-0.2l0.2-0.2h-0.2l0,0h0.2h0.2l0,0l0,0l0,0l0,0h0.2h0.5h0.2l0.2-0.2l0,0l0,0h0.2h0.2h0.2h0.2h0.2l1-0.5l0,0
	h-0.2h0.2h0.2l0,0l0,0h0.5l0,0l0,0h0.2V123v1.1v0.2l0,0l0,0v-0.2v-0.2v-0.2l1-0.2h0.2l1.4,0.7h0.2l0.2,0.2v0.2v0.7l0.2-0.2l0.2-0.2
	l0.2-0.2l0.2-0.2l0.2-0.2l0.2-0.2l0,0l0,0l0,0l0,0l0,0l0.2-0.2l0.2-0.2l0.2-0.2h-0.2v-0.2h-0.2l-0.2-0.2v-0.2l0.2-0.2v-0.2l0.2-0.5
	l0.2-0.5l0.2-0.2l0.5-0.2v-0.2l0.2-0.5v-0.2l0,0V120v-0.9v-0.2v-0.2v-0.2v-0.4v-0.2v-0.2l0,0l-0.2-0.2v-0.2v-0.5v-0.5v-0.2l0.2-0.2
	l0.2-0.5l0.2-0.2l0.7-0.5l0.5,0.5l0.2,0.2h0.2h2.1l5,0.7l0.5,0.2v0.5h0.5l2.4,1l0.2,0.2l0.2,0.2l1,0.5h0.2h0.2l0.2,0.2l0.2,0.2
	l0.5,0.2l0,0h0.2h0.2h0.2l0.2,0.2v0.2h0.2h0.5l0,0l0,0l0,0h0.2h0.2l0,0l0,0l0.7,0.7h0.2l0.2,0.2l0.2,0.5l0,0h0.2l0,0l0.2,0.2
	l0.2,0.2l0,0v0.2l0.2,0.5l0.7,0.7l0.2,0.5v0.2v0.5l0,0l0.2,0.2l0,0l0,0l0.5,0.7h0.2h0.2h0.2v0.2l0.2,0.2l1,0.5h0.2h0.5l0.7,0.5
	l0.5,0.2l1.2,0.2h0.5l0.7-0.5v-0.2h0.2l0.7-0.5h0.2l0.7,0.2h0.5h0.2l0,0l0,0l0,0h0.2l0.2-0.2v-0.2l-1.2-0.2h0.2h0.2l0.2,0.2h0.2h0.2
	h0.5h0.5h0.2l0.2-0.2h0.2l0.5,0.2h0.2l0.5-0.2h0.2h0.2l0.5,0.2h0.2l0,0h-0.2h0.2l0.2-0.2l0.2-0.5l0.2-0.2h0.2h0.2l0,0v0.2l0.2,0.5
	l0,0l0,0v-0.5v-0.2l0.5-0.5l0,0l0.5-0.2h0.2h0.2l0.2-0.2l0.2-0.2l0,0l0,0l0,0h0.2l0.2-0.2l0.2-0.5l0.2-0.2h0.2h0.2h0.2l0.2,0.2
	l0.2,0.5v0.5v0.2l0,0h0.2l0,0v-0.2v-0.2v-0.2l0.2-0.2l0,0l0,0l0,0l0.2-0.2l0.2-0.2h0.5l0.2-0.2V122v-0.5V121l0.5-0.2l0.5-0.5
	l0.2-0.2l0,0v-0.2v-0.2l1-1.4l0.5-0.2l1.4-1l1.2-1l0.5-0.2l0,0l0.2-0.2l0,0l0.5-0.2h0.2h0.5l0.7-0.5l0.5-0.2l0.5,0.2l0,0l1,0.5
	l0.5,0.5h0.2v0.2l0,0h0.2h0.2h0.2h0.2h0.2l0.5,0.2l0.2,0.2l3.1,1.9h0.2h0.2l0.2,0.2h0.2l0,0l0.2-0.2h0.2l0,0l0,0l0,0l0.2-0.2l0,0
	h0.5l0.5,0.2h-1l0,0h-0.2v-0.4l0,0h0.2h0.2l0.5,0.5h0.2h0.5l0,0v-0.2h0.2l0,0v-0.3v-0.2v-0.2v-0.2v-0.2v-0.2l0.5-0.5h-0.2h-0.2
	l-0.2,1h-0.2v-0.2l0.2-0.2l0.2-0.2l0.7-0.2H289h-0.2h-0.2h-0.2l0,0v-0.2l0,0h-0.2l0,0l0,0l0,0l0,0l0,0l0,0l0,0l0,0v0.2h3.8l-0.2,0.2
	v-0.2v-0.2l0.2-0.2l0.2-0.2l0,0l0,0l0,0l0,0h0.2l0.2-0.2l0.2-0.2l0.5-0.2h1h0.5l0.2-0.2l0.5-0.5h0.2h0.2l0.2-0.2l0.7-1l0.5-0.5
	l0.5-0.2l0.5,0.2l0.5,0.2l0.5,0.5l0.7,1l0.2,0.2v0.2v1l0,0v0.2v0.2v0.2v0.2v0.2l-0.7,1.2v0.2h-0.2h-0.2l-1.4,1h-0.2v0.2l-0.5,0.7
	l0,0l-0.5,0.2l0,0l0,0h-0.2v0.2v0.2l0,0H296l0,0l-0.2,0.5l0,0h-0.2h-0.2h-0.2v0.2l-0.2,0.5v0.2l0.2,0.2l0.2,0.2l0.2,0.2l0.2,0.2
	l0.2,0.5l0.2,0.2l0.2,0.2l1,1.4l0.2,1v0.2h-0.2l-0.5,1l-0.2,0.2l0,0h0.2h0.2h0.2l0.2,0.2v0.2v0.2v0.2l0.2,0.2h0.2h0.5l0.5,0.2
	l0.7,0.5h0.2l0.2-0.5v-1.2l0.2-0.5l0.5-0.2h0.2h0.2v-0.5l0,0l0,0h0.2l0.5,0.2h0.2v-0.5v-2.1v-0.2l0,0l0,0v-0.2l-0.2-0.2l0.2-0.2
	l0.2,0.2h0.2h0.2h0.2l0,0l0,0l0,0l0,0l0,0l0,0h0.2h0.2l1,0.2h0.2l1-0.2v-0.2v-0.2v-0.2v-0.2l-0.2-0.2l-0.2-0.2h-0.2h-0.5l-0.5-0.2
	l0,0v-0.2v-0.2v-0.2l0,0l0,0l0,0l0,0h-0.2l0,0l0,0l-0.2-1v-0.2v-0.2l0.5-0.5v-0.9v-0.7l0.2-0.7l0.2-0.5V117v-0.2v-0.2l0.2-0.2
	l0.2-0.2l0.2-0.2v-0.5l0,0l0,0l2.4,0.7h0.7h0.2h0.2l0,0l0.2,0.2l0.5,0.2v0.2v0.2v0.5v0.2l0.2,0.2l0.2,0.2l0,0v-0.2l0.2-0.2h0.2h0.2
	h0.2h0.2l0.7-0.2h0.2l1.9,0.5h0.5l1.9-1.2l0.7-0.2l2.1-0.5l1.9-1h0.2l1.4-1l1-0.2h0.5h0.7l2.4,0.7l0.7,0.2l1.7,1.7l0.7,0.5h1h1.9
	h0.2h0.7l1.9,0.7h0.7l6.4-1.2l2.6-1l1.2-0.7l0.5-0.2h0.5l0.5-0.2l2.6-1.7l0.2-0.2h0.2h0.2h0.2l0.5-0.2l1.7-1l0.7-0.2l2.4-0.2
	l2.9,0.7l0.5,0.2h0.2l3.6-0.2l6.7-1.7l0.5-0.2l1-1l0.7-0.7h0.2l0.2-0.2l0.2,0.2v0.2v0.2l0,0h0.2l0.5,0.2l0,0l0,0l0,0l0,0l0,0v0.2
	l0,0l0.5,0.2l0,0v0.2l-0.2,1l0.2,0.2l0,0v0.2v0.5h0.5l0.7-0.2l1-0.2h0.2l0,0l0.2-0.5l1.7-2.4v-0.2l0,0l0,0v-0.2l0,0l0.7-0.2l0,0h0.2
	l0,0v0.2l0,0l1,0.2h0.5l0.5-0.2l0.2-0.2l0.5-0.2l1.9-0.5h0.5h0.2l1.7,1l0,0l0,0l0,0l0,0l0,0h0.2h0.2l0.5,0.5l0.5,0.2l0.5,0.5h0.2
	h0.2h0.2h0.2h0.2l0,0l0.2,0.2l0.2,0.2h0.2h1.2h0.2h0.2h0.2l0.2,0.2l0,0h0.2l0.2-0.2h0.7l0.5-0.5l0.5-0.5l0.5-0.5h0.5h0.7l1.2,0.5
	l0.2,0.2l0.2,0.2l0.2,0.2v0.5v0.2v0.2v0.2v0.2h-0.2h1.5h-0.2l-0.2,0.2v0.2v0.2v0.2l0.5,1.2v0.2l0,0l0.5,0.2h0.2l0,0v-0.2l0,0
	l0.2-0.2v-0.2v-0.2l2.1-0.7l0.2-0.2l0.2-0.2l0.2-0.5l0.5-0.5l0.5-0.2l0.5-0.2h0.2l1.2,0.2l0.2,0.2l0.2,0.2v-0.2v-0.2v-0.2l0,0v-0.2
	l0.2-0.2h0.2l0.2-0.2V108l-0.2-0.2L405.9,106.9z M173.5,53.3v0.5V54v0.2v0.2v0.2h0.2h0.2h2.4l0.7-0.2h0.2l0.2,0.2h0.2h0.2h0.2h0.2
	h0.2l0.2,0.2l1-0.5h0.2h1h0.2l0.2-0.5l1-0.2v0.2l0.5,0.7l-0.2,0.5l-0.2,0.2l-0.5,0.2l-0.2-0.2l-0.2,0.2l-0.2,0.5l-0.2,0.2h-0.2h-0.5
	h-0.2h-0.5l-0.5,0.2l-0.5,0.5l-0.7,0.5l-0.5,0.5l-0.7,0.5l-0.2,0.2h-0.2l-0.7,0.2l0,0l0,0l-0.2,0.2v0.2l0,0h0.2l0,0l0,0h-0.2
	l0.5,0.2l0.2,0.2V60l-0.2,0.5l-0.5,0.7v0.2v0.7l-0.2,0.2l-0.2,0.2l0,0v0.2v0.4l0,0h0.2l0.5,0.5l0,0l0.5-0.2l0.5-0.2l0.2-0.2l0.5-0.5
	l-0.2-0.2l-0.2-0.2v-0.2l0.2-0.5h0.2h0.5l0.2-0.2l0.2-0.2l0.2-0.5l0,0l0,0l0.2-0.2l0.2-0.2h0.5l0,0l0.7-0.7l0.2-0.2V59v-0.2v-0.2
	l0.5-0.2l0.2-0.2v-1.1h0.2h0.2l0.5-0.2l0.2-0.2l0.5-0.2h0.2l0.2-0.2l0.7-0.5l0.5-0.2h0.5h0.2l0.5-0.5l0.2-0.2h0.2h0.5l0.2-0.2h0.2
	h0.2l0,0l0.2-0.5l0,0l1.2-0.7l0.5-1l1.2-1.2l0.2-0.5l0.2-1.4l0.2-0.5l0.5-0.2l2.6-0.5h0.5l0.5,0.2l0.2,0.2l0.2,0.2l0.2,0.2l1,0.2
	h0.2V49v-0.2l0.2-0.5l0.2-0.2l0.2-0.2h0.2h0.2l0.7-0.2h0.2l0,0l0.7-0.2l0.2,0.2h0.2h0.5l0,0l0.2,0.2l0,0h0.5h0.5l1,0.2h0.5l0.2,0.2
	l0.7,0.7h0.5l0.2-0.2v-0.2v-0.2v-0.2V48l-1-0.7v-0.2h0.2l0.2,0.2l0.2,0.2V48l0,0l0,0l0.2,0.2v0.5l0.5,0.2l1.4-0.2h0.2l0.2,0.2l0,0
	h0.2h0.2h0.2l0,0l0,0l0,0h0.2h0.5l0.2-0.2h0.2l0,0v-0.2l0,0l0,0l0,0h0.2l0,0l0,0l0,0l0,0l0,0l0,0l0,0v-0.2l0,0h0.2l0,0l0.2-0.2v-0.2
	v-0.2v-0.6l0,0l0,0l0,0l0,0l0,0l0,0v-0.2v-0.2l0,0h0.2l0.2-0.2l0.2-0.2l0.2-0.2v-0.5l-0.2-0.2l-0.2-0.2h-0.2l0,0v0.2l0,0l0,0l0,0
	l0,0l0,0l-1.4-1.2l-4.1-1.9l-2.6-1.2l-1.9-1.2l-0.7-0.7L198,39l-0.2-0.2l-0.2-0.2l-0.2-0.2l-0.2-0.2V38l0,0l0,0l0,0l0,0l0,0l0,0l0,0
	v-0.2v-0.7l-0.2-0.2l-0.2-0.2l-0.2-0.7l-0.2-0.2l-0.2-0.7l-0.2-0.2v-0.5v-0.5v-0.2h0.2h0.2h0.2h0.2l0,0l0,0v-0.2l0,0l0,0v-0.2
	l-0.2-0.7h-0.5h-0.2h-0.7H195l-0.2-0.2h-0.2l0,0h-0.2l0,0l0,0l0,0l0,0v0.2v0.2V33h0.2l0,0h-0.2h-0.2l-0.5-0.2l0.3-0.7h-0.5l-0.7,0.5
	v0.2l0,0l0,0l0,0V33h-0.2h-0.2l0,0l0,0l0,0l0,0l0,0l0,0l0,0h0.2h-0.2h-0.2l-0.2-0.5l-0.2-0.2l-1-0.5l-0.2-0.2l-0.2-0.2l-0.5-0.7
	l-0.2-0.2l-1-0.2H188h-0.2h-0.2l-0.2,0.5l0,0l0,0l0,0h-0.2H187h-0.2l-0.2-0.2l-0.2-0.2h-0.2H186l-0.2,0.2l-0.2,0.7l-0.2,0.2h-0.2
	v0.2v0.2l-0.2,0.2l0,0h-0.2H184l-0.2,0.2l0,0l0,0h-0.2h-0.2l-0.2,0.2l0,0H183l-0.2-0.2l0,0h-0.2l-0.2,0.2h-0.2H182l-1.2-0.2h-0.2
	l-0.2,0.2l-0.5,0.5l0,0l0,0l0,0l0,0h0.2l0,0l0,0v0.2l0,0v0.2v0.2v0.2l-0.2,0.2l-0.7,0.7H178l-0.5,0.5l-0.2,0.5v0.5v0.2l0.2,0.2h0.2
	h0.2l0.2,0.2l0.5,0.2h0.2h0.2v0.2v0.2l0.7,0.5l0.5,0.2l0.2,0.2l0.2-0.2v0.2v0.2l0,0l0,0v0.2v0.5v0.2l-0.2-0.2v0.2v0.7l0.2,0.7V41
	v0.2v0.9v0.2l-0.2,0.2h-0.2H180l-0.2-0.2l-0.2-0.2l-0.7,0.7h-0.2l0,0l0,0l0,0l-0.2,1l-0.2,0.2h-0.2h-0.7l-0.2,0.2l0.2,0.2l-0.2,0.5
	v0.2v0.2l0.2,0.2l-0.2,0.5v0.2h0.2l0,0l-0.2,0.5v0.4l0.2,0.5v0.2l0.2,0.2v0.2v0.2l0,0h-0.2l0,0l0,0v0.2l0.2,0.2h0.2l0,0l-0.2,0.2
	h-0.2l-0.2,0.2l-0.2,0.2l0,0l0,0l0,0h-0.2l0,0l0,0l0,0l0,0l0,0v0.2v0.2l0,0l0,0l0,0v-0.2v0.2l0,0l0,0l0,0l0,0l0,0l0,0l0,0h-0.2l0,0
	l0,0V50l-0.7,0.5l-0.7,0.7v0.9l-0.2,0.2l-0.5,0.2H174l0,0l0,0v0.2L173.5,53.3z"/>
<g>
	<path class="st1" d="M130.8,121.7c-4.7,1.3-9.8,1.7-14.4,3.3c7.8-6.7,7.4-17.1,12.6-25c1.7-2.2,3-4.6,5-6.7
		c-3.2,6.4-1.8,14.6-5.4,20.8c-1.4,2.5-3.4,4.8-5.6,6.8c0.7,0,1.3-0.7,2-1.1c5.9-5.9,13.7-7.6,20.1-12.4c2.6-2,4.9-4.7,6-7.6
		C149.7,109.5,140,118.7,130.8,121.7"/>
	<path class="st1" d="M152.1,81.9c-2.9,4.1-6.4,8-9.1,12.2c0.3-3.3,0.7-7.4-0.6-10.6c-2.2-6.8-4.2-13.6-4.8-21.1l0.1-2.8
		c1.7,7.6,9.2,12.8,8.7,21.3c0.2,2.1-0.5,3.8-0.9,5.6l0.1,0.1l0.3-0.4c1.1-4.2,1.7-8.6,3.4-12.5c2.5-5.6,5.5-11.3,4.3-18
		C157.3,63.8,156.2,74.5,152.1,81.9"/>
	<path class="st1" d="M147.5,38.9c4.9,6.6,6,17.2,2.4,24.8c-1.3,3.2-2.3,6.7-2.8,10.2c-0.2-0.6-0.3-1.4-0.5-2.1
		c-1.9-7.4-9-12.7-11.9-19.8c-0.9-2.3-1.7-4.7-2.1-7.2c3.1,5.7,10.7,8.7,12.8,15c0.9,1.6,0.8,3.6,1.3,5.3c0.1,0,0.2-0.1,0.2-0.2
		c-0.9-6.5-0.6-13.3,0.2-19.7c-0.1-3.5-0.4-6.9-2.3-9.5C146.1,36.5,146.7,37.8,147.5,38.9"/>
	<path class="st1" d="M144.1,37.7c1.3,5.8-0.6,11.5,0.6,17.3h-0.1c-3.2-6.2-9.9-9.1-14.5-14.1c-2.7-3-3.8-6.5-4.5-10.4
		c2.7,6.4,9.8,7.8,13.9,13.1c1.4,1.2,1.8,3,2.7,4.4l0.1-0.1c-2.4-5-3.2-10.7-4.8-16c-0.8-2.3-2.5-4.6-4.6-6.1
		C138.3,26.9,143,32.5,144.1,37.7"/>
	<path class="st1" d="M129.7,24.3c4.1,3.6,5.9,8.3,7.1,13.2l0.7,1.5c-5.9-4.2-11.2-9.9-15-15.9l-4.6-4.6
		C121.9,20.2,126.3,21.2,129.7,24.3"/>
	<path class="st1" d="M36.9,19.3c-4.1,3.6-6.9,8.1-9.9,12.3c-2.7,3.3-6.2,5.6-9.2,8.4c1.7-3.4,1.7-7.5,4.1-10.7
		C25.2,23.5,31.4,21.4,36.9,19.3"/>
	<path class="st1" d="M14.7,31.7c2-2.5,4.5-4.2,7.3-4.9c-5.5,3.8-5.1,10.5-6.8,16.1c-0.6,2.1-1.5,4-2,6.1l0.1,0.1
		c0.9-2.4,2.5-4.7,4.5-6.6c3.9-3.6,9.6-5.8,11.5-11.1c-0.1,7.4-6.2,13.2-12.1,17.3c-2.4,2.1-4.8,4.6-6.1,7.3
		c-0.1-1.9,0.3-3.7,0.1-5.7C10.6,43.8,10.1,36.5,14.7,31.7"/>
	<path class="st1" d="M3.6,53.7C3.4,47.2,6.1,41.8,9.9,37c0.1-0.1,0.2-0.2,0.3-0.1C6,43.3,9.5,51.3,9.3,58.6L8.7,66
		c0.1,0.1,0.1,0.3,0.3,0.2c0.3-0.8,0.3-1.7,0.5-2.6c1-6,6.2-10.2,10.7-14.4c1-1.1,1.8-2.2,2.3-3.4c-0.4,3-1.3,6-2.5,8.8
		C16.6,61.4,10,67.1,8.8,75C8.2,67.4,3.1,61.7,3.6,53.7"/>
	<path class="st1" d="M0.4,63c0.5-2,0.8-4.1,1.7-6c-1.7,8.6,4.1,14.8,6,22.3c0.8,2.8,1,5.8,2.1,8.4c0.1,0.1,0.2-0.1,0.3-0.1
		c-2.8-8,1.2-15.3,5.4-21.5c1-1.7,1.6-3.6,2.1-5.5c0.4,3.6-0.5,7.7-1,11.5c-1,4.7-2.5,9.3-3.8,13.9c-0.9,2.9-0.6,6.1-0.2,9.1
		l-0.4-0.3c-3-5.5-9-9.9-10.7-16C0.4,73.9-0.6,68.3,0.4,63"/>
	<path class="st1" d="M0.1,79.8c0.7,9.1,10.5,14,15.1,21.5c1.1,1.5,2,3.3,3.5,4.6c-0.2-1-1.1-1.8-1.5-2.8c-1.6-3.2-2.2-7-1.8-10.8
		c0.4-4.7,2.4-9,1.7-13.9c4,8.7,2.8,19.4,5,28.8c0.6,2,1.8,3.9,2.5,5.8c-8.2-5.6-19.4-10.9-23.1-21.2C0,88.3-0.2,83.9,0.1,79.8"/>
	<path class="st1" d="M5.1,100.8c4.6,10.4,16.1,11.2,23.8,17.6c1.4,1.2,2.9,2.3,4.5,3.1l0.1-0.1c-1.8-1.6-3.8-3.4-5.1-5.5
		c-4.5-6.3-2.9-15.1-6.3-21.8c3.1,3.7,5.9,7.5,7.7,11.7c2.8,6.8,3.8,14.5,10.2,19.6c-6.9-2.3-15-1.6-21.1-5.9
		C12.2,115.4,6.3,108.5,5.1,100.8"/>
	<path class="st1" d="M16.9,120.2c7.3,8.4,19.4,5.6,29.2,7.8c1.4,0.2,2.7,0.7,4.1,0.5c-1.2-0.7-2.8-0.7-4.1-1.3
		c-7.7-2.7-8.8-11-13-16.6c5.3,3.5,9.8,8.3,14.7,12.9c3.5,3.1,7.8,4.5,12.3,5.4c-1.1,0.4-2.5,0.3-3.6,0.6c-8,2-17,5.2-25.5,2.3
		C25.4,130.1,19.6,125.7,16.9,120.2"/>
	<path class="st1" d="M116.7,139.7c-8.3,3.1-16.9-0.1-23.4-5c-2.6-1.7-4.9-4.1-8.3-3.8c-1.2,0-2.4,0-3.5,0.3
		c6.3,2.9,12.1,7,17.5,12.1c-0.9,1-2.1,2-3.2,2.9c-5.2-5.5-10.9-10.9-17.2-14c-1.2,0.2-2.4,0.9-3.6,1.5c-5.2,3.3-10.3,7.5-14.2,12.7
		l-3.3-2.7c5.3-5.4,11.2-9.5,17.6-12.5c-6.3-2-10.4,3.3-15.2,6c-5.6,3.9-13.6,5.7-20.3,3c-3.6-1.4-7.1-3.4-9.8-6.7
		c5.3,3.6,13.2,4,19.2,1.7c8.1-3.5,16.5-8,26.2-5.8c1.5,0,3,1.5,4.4,0.3c7.2-1.9,15.4-0.6,21.7,2.7l6.4,2.6c6,2.2,13.7,1.6,18.8-2
		C124,136,120.4,138.4,116.7,139.7"/>
	<path class="st1" d="M125.6,131.1c-9.3,3.5-18.7-0.8-27.6-2.2l-1.7-0.2v-0.1c4.3-1,8.4-2.2,11.8-5.3c5-4.8,9.4-9.8,15-13.5
		c-4.1,5.3-4.5,12.8-11.4,16.2c-1.7,1.1-3.8,1.3-5.6,2.1c2.5,0,4.8-0.8,7.2-1.1c9.1-1.4,19.6,0,25.9-7.7
		C137,124.7,131,129.2,125.6,131.1"/>
	<path class="st1" d="M142.5,105c-3.7,2.4-7.4,4.6-10.9,7.4v-0.3c5.4-9,2.8-21.4,6.1-31.2l1.2-3.3c-0.7,6.2,2,11.4,1.8,17.6
		c-0.2,3.7-1.4,7-3.4,10h0.3c2.7-3.5,4.7-7.2,7.8-10.5c4.8-4.6,9.7-9.4,10.3-15.8C157.4,89.5,151.4,98.9,142.5,105"/>
	<path class="st1" d="M127.8,45.4c-9.1-19.3-29-31.5-49.8-31.5c-9.1,0.2-17.5,2.2-25.1,6c-13.6,6.5-24.7,20.6-28.5,34.6
		c-6.1,23.5,2.2,47.4,22.4,61.2c14.5,10.4,37.7,12.4,54,4.4c14.5-6.1,26.9-21,30.7-35.8C135.2,71.7,133.5,56.5,127.8,45.4
		 M130.4,64.9c0.1,0.9-0.1,2.1,0.4,2.8l-8,0.1c-0.2,0.1-0.4,0.2-0.7,0.2l0.2-0.3c-0.2-6.2-1.8-11.9-4.2-17.2c-0.1-2.4-2.4-4-3.4-6
		c-1.8-1.2-2.3-3.4-4.3-4.5c-0.4-0.4-0.6-1.1-1.1-1.2l0.9-0.2c1.9-2,4-3.9,5.5-5.9C124.1,42.1,129.3,52.6,130.4,64.9 M107.9,94.8
		c-0.7-0.7-0.7-2-1.9-1.9c-0.4-0.1-0.6,0.3-0.6,0.7c0,0.2,0.1,0.4-0.1,0.6l-2.5-2.2c1.2-0.6,2.1-2.2,3-3.4c2.3-3.2,3.7-6.8,4.8-10.5
		c0.4,0.3,0.9,0.3,1.3,0.1c0.4-0.3,0.4-0.9,0.2-1.3l-0.9-1c0.1-1.7,0.6-3.3,0.4-5l0.6,0.2c2.6,0,5.2,0.1,7.7-0.1l-0.4,0.4
		c-0.6,10-4.1,19-11.1,26.3C108.7,96.7,107.7,95.9,107.9,94.8 M101.4,102.8c-1.4-1.3,0.9-2.4,1.3-3.7c-0.2-1.3-1.7-2-2.8-2.4
		c-0.5-0.3-0.4-1-0.4-1.4c0.5-0.5,1-0.9,1.2-1.6l0.2,0.5l3.4,3.5c0,0.8,0.1,1.5,0.9,1.8c0.4,0.2,0.8-0.2,1.1-0.1h-0.2
		c-1.5,1.6-3.3,2.8-4.9,4.1l-0.4,0.5C100.7,103.7,101.9,103.4,101.4,102.8 M86,59.9c-0.4,0.2-0.9,0.5-1.4,0.3
		c-0.5-0.5-1.1-1.2-1.9-1.2c-0.5,0.1-0.9,0.8-1.5,0.4c1-1.1,2.8-1.3,3.5-2.8c0.2-0.7,0.4-1.5,0.3-2.2c-0.3-0.3-0.7-0.6-1-0.3
		c-0.6,0.9-1.8,1.1-2.4,2.1l-2-0.7c-0.3-1.8,0.1-4.1-0.4-5.7c1.1,0.4,2.2,0.4,3.3,0.7c2.8,0.7,5.4,2,7.9,3.6
		c-0.6,0.2-1.2,0.9-1.7,1.3c0,0.5,0.5,0.4,0.7,0.7l0.5-0.2C89.1,58,86.3,57.7,86,59.9 M88.3,82.8c-0.1,1-1.5,1-2.1,1.7
		c-0.4-0.1-0.1-0.5,0-0.7C86.8,83.2,87.3,82.7,88.3,82.8 M103.9,56.4c0.9,0.2,1.5,1.3,2.4,1.5c0.8,1.3,1.1,2.7,1.5,4.2
		c-0.7,0.8-0.8,2.7-2.4,2.4c-0.4-0.9,0.7-1.4,0.5-2.2c0.3-0.2,0.7-0.3,0.8-0.7c-0.1-0.8-1.1-0.7-1.3-1.5c-0.3-0.5-0.9-0.4-1.3-0.6
		c-1.1-0.5-2,2.1-2.3,0.1c0.3-0.3,0.5-0.7,0.3-1c-0.9-0.5-1-1.8-2-2.3c-1.3,0-2.6-0.6-3.9-0.3c-0.9-0.2-1.9-0.8-2.5,0.1
		c-0.1,0.7-0.4,1.3-0.5,1.9c-0.3-0.2-0.6-0.5-0.7-0.8c2.4-2.7,5.2-5.5,7.8-8.1l0.1-0.3c1.3,1.6,2.8,3.2,3.7,4.9
		C104.2,54.6,102.1,55.7,103.9,56.4 M108.7,71c-0.5,1.5-0.4,3.2-0.8,4.7c-0.1,0.3-0.1,0.6-0.2,0.8c-0.5-0.9-0.9-2.2-1.9-2.7
		c-0.9-0.5-0.3-1.7-1.2-2.3l-0.9-0.9C105.2,71.2,107.1,71.1,108.7,71 M97.2,47.5c-1.5,1.7-3.3,3.1-4.6,4.9l-0.2-0.6
		c-3.6-3-7.8-4.4-12.4-5.1l-0.7,0.1l0.1-7.5l-0.3-0.6c3,0.5,6.1,0.9,8.9,1.9c3.6,1.3,6.9,3.2,9.9,5.7l0.7,0.3L97.2,47.5z M89.7,88.5
		c2.4,0.2,4.7,0.8,6.9,1.6c0.6,0,1.2-0.1,1.5-0.5c-0.1-0.9,1-1.3,0.8-2.2c0.5-0.8,0.1-1.9,0.8-2.5c0.1-1-0.1-2-0.7-2.8
		c-0.6-0.4-1.2,0.1-1.7,0.2c-0.7,0.5-0.4,2-1.6,1.7c-0.3,0.4-0.8,0.4-1.2,0.3c-0.1-0.1-0.3-0.2-0.2-0.3c0.8-0.4,2.3-0.1,2.4-1.5
		c0.6-0.5,1.6-0.3,2.1-0.9c0.4-0.7,0.6-1.2,1.2-1.8c0.1-0.3,0.2-0.6,0.1-0.9c0.2,0.4,0.2,0.9,0.7,1.1c0.6,0.2,0.9-0.3,1.2-0.7
		c0-0.2,0.1-0.6,0.4-0.3c0.7,0.5,1.7,0.1,2.5,0.1c0.7-0.2,1.4-0.4,2.2-0.4c-0.7,3-2.2,5.9-4,8.5c-0.7,0.9-1.3,1.8-2.1,2.6
		c-0.2-0.6-0.2-1.5-0.8-2.1l-0.3,0.1c-0.4,0.9-1.3,1.6-1.2,2.7c-0.7,1-2.3,0.2-3.3,0.7c-1.2,0.4-1.8-0.8-2.8-1
		c-1.1-0.4-2.3-0.5-3.3-1C89.3,88.7,89.4,88.5,89.7,88.5 M84.5,17.2c11,1.5,21,5.9,29.3,13.9l-0.9,0.4c-1.5,1.6-3.3,3-4.2,4.8
		c-0.1-0.5-0.9-0.9-1.1-1.4c-0.2-1.5-1.6-3-2.9-3.7c-1.1-0.2-1.3-1.8-2.7-1.3c-1.1-0.9-2.5-0.2-3.6,0.3v0.1
		c-5.3-3-11.1-4.8-17.4-5.3c-0.3,0-0.5,0.2-0.8,0.2c0.3-0.2,0.2-0.9,0.1-1.3c-0.2-0.3-0.5-0.6-0.9-0.4c-0.1,0.2-0.3,0.4-0.3,0.7
		c0.2-2.5,0.3-5.4-0.1-7.6C80.8,17.1,82.7,16.9,84.5,17.2 M82.4,28.3c4.8,0.6,9.1,1.9,13.4,3.8c0.6,1,1.9,1.4,2,2.7
		c-0.6,1.7,2.2,1.7,0.9,3.4c-0.1,0.5,0.4,0.9,0.6,1.3c0.2,0.5-0.1,1.2,0.5,1.5c1,0.2,1.4-1.1,2.4-0.7c1.3,0.9,1.6,2.5,1.6,3.9
		c0.2,0.9,0.9,1.5,1.7,1.8c1.6-0.5,0.9,1.3,2,1.8c1.3,0.2,1.9,1.8,3.3,1.7c1.2,0.9,1.9,2.3,3,3.4c0,0.3,0.1,0.5,0.3,0.6
		c0.7,0.2,1.1-0.3,1.7-0.3c2.1,4.4,3.2,9.2,3.6,14.3l0.3,0.5c-2.7,0-5.4,0-8.1,0.2c-0.1-1.6,0-3.2-0.9-4.5c0.4-0.8,0.5-1.9,0.5-2.8
		c-0.2-0.4-0.5-0.1-0.7,0c-0.9,0.9-1,2-1.5,3c-0.8,1.1-0.9,2.7-0.4,3.9l0.3,0.3l-3.1-0.1c0.7-0.5-0.6-1.4,0.1-2.1l1.4-0.3
		c0.4-1,1.5-1.8,1.5-3c0.6-0.7,1.2-1.7,0.7-2.7c-0.7-1.5,1.1-3.1-0.2-4.5c0.1-0.4-0.2-1-0.7-1c-0.4-0.1-0.9,0-0.9-0.6
		c0.3-0.4,0.9-0.8,0.7-1.4c-0.3-0.4-0.8-0.1-1.3-0.1c-0.1-0.7,1.1-1.4,0-2c-0.7-0.1-1.2,0.8-1.9,0.5c-0.3-0.3-0.6-0.7-0.3-1.1
		l-1.7-2c-0.2-0.2-0.6,0.1-0.7-0.3c0.1-1.6-1.9-2.5-2-4.2c-0.6-0.5-0.1-1.6-0.9-2c-0.4-0.3-0.9-0.7-1.5-0.5c-0.7-1-1.5-2-2.4-2.8
		c-0.3-0.1-0.5,0.1-0.6,0.2c0.1,0.8,1,1.2,1,2.1c-0.1,0-0.2,0-0.3,0.1c0.1,0.8,0.8,1.4,1.3,2c-4.3-3.3-9.4-5.1-14.9-6
		c-1.1,0-2.1-0.5-3.2-0.1c0.3-2.4,0.1-5.1,0.1-7.7L79,27.8C80.1,28.4,81.2,28.1,82.4,28.3 M77.7,60.1l0.5,0.2
		c-0.6,0-1.2-0.3-1.7,0.1c-0.3,0.2-0.1,0.7,0,1c1,0.4,1.2,2,2.5,1.4c0.6,0.1,1.2,0.2,1.4,0.9c0.8,0.3,0.9,1.7,2,1.4
		c-0.1,0.5-0.2,1.4,0.4,1.9c-0.2,0.5-0.8,0.7-0.7,1.3C82,68.5,81.8,68.7,82,69c1,0.1,1,1.3,1.4,1.9c-0.2,0.8,0.1,1.6,0.7,2.1
		c-0.1,0.9-0.5,1.7-0.9,2.6c-1.1,0.5-2.8-0.8-3.2,1.1c-0.6,0.7-0.1,2.1-1.3,2.2c-2.3,0.2-4.4-0.3-6.1-1.7c1.1-0.6,3.1,0.2,3.5-1.5
		c0.3-0.3,0.4-0.7,0.3-1.1c0.5-0.5,0.7-1.2,1-1.8c-0.4-0.4-0.2-0.6-0.1-1.1c-1.1-1.2-2.7-0.5-4.1-0.5c-0.9,0.5,0,1.4-0.6,2
		c-1.1,0.1-1.1,1.2-1.9,1.9c-0.4-0.2-0.8-0.8-0.7-1.2l0,0c-0.1,0.2,0.1,0.4,0.3,0.5c1,0.2,0.7-1,1-1.6c0.2-0.7,1.7-1.6,0.5-2
		c-0.1-0.3,0.2-0.6-0.2-0.8c-0.4,0.2-1,0.2-1.1,0.7c0.2,0.5,0,1-0.4,1.3h-0.2c0.1-0.3-0.2-0.5-0.4-0.7c-0.6,0-1.2,0.5-1.8,0.3
		c-0.9,0.2-1.9,0.4-2.8,0.4c-0.1-0.5,0.7-0.4,0.9-0.9c-0.1-0.8,0.4-1.3,0.8-1.9c0.2-0.2,0.6-0.1,0.9-0.1c0.2,0.2,0.4,0.4,0.8,0.3
		l0.3-0.5c0.8,0.5,0.4,2.9,2,1.9c0.2-1,0-2.2,0.5-3.2c-0.4-0.9,0.6-1.2,0.9-1.8c0.8,0.1,0.8-0.9,1.1-1.3c1.3-0.4,2.7-0.7,3.5-2.1
		c-0.3-0.7-0.1-1.7-0.7-2.2C76.3,59.9,77.3,59.6,77.7,60.1 M76.5,111.4l-0.8-0.5c-10.3-0.5-19.1-4.7-26.7-11.5
		c1.2-0.1,1.7,1.5,3.1,1.1c1.5-0.2,2.7-1.4,4.2-1.1c0.8,0,1.7,0,2.2-0.7c0.3-0.8-0.6-1.2-0.8-1.9c5.2,3.9,11.1,6.3,17.8,6.7l0.7-0.3
		v7.3L76.5,111.4z M47.5,71.5l-0.4-0.7c0.8,0.6,1.7,0.4,2.7,0.2c-1.4,0.4-0.9,2.1-1.4,3.1c-0.1,0.5,0.7,0.6,0.6,1.1
		c-0.7,0.3-0.7,1.1-1,1.6C48.3,75.1,47.6,73.4,47.5,71.5 M39.1,81.1c-0.7,0.1-0.5,0.9-0.9,1.3c0.1-1.9-0.8-3.8-1-5.8l-0.6-5.1
		l-0.3-0.4c2.4,0.4,5.1,0.1,7.7,0.2l0.6-0.3c-0.2,1.2-0.3,3,0.6,4.1c-0.3-0.3-0.7-1.3-1.5-1.3c-1.4,0.1-1.5,1.9-2.9,2
		c-1.2,1-1.3,2.3-1.6,3.6C39.7,80,38.8,80.5,39.1,81.1 M44.8,68.3L44,68l-7.6,0.1c0.7-8.5,3-16.2,7.9-22.9l3-3.8v-0.5
		c1.8,2.1,3.7,4,5.8,5.8c-5.4,5.9-8.2,12.9-8.8,20.7C44.5,67.8,44.5,68.1,44.8,68.3 M76.1,36.1c-1.4-0.3-2.9,0.2-4.4,0.3
		c-6.2,1.3-11.9,3.9-16.6,8.4L55,44.3c-1.8-1.7-3.5-3.9-5.6-5.2c1.8-1,3.3-2.6,5.1-3.8c6.4-4.3,13.6-6.7,21.6-7.2
		C75.8,30.7,76,33.4,76.1,36.1 M63.7,77.8c0,0.3,0.4,0.5,0.7,0.3c0.3-0.4-0.7-1.1,0.1-1.4c0.4,0.5,0.2,1.3,0.5,1.9
		c0.2,0.3,0.3,0.7,0.3,1.1c-0.7,0.9-1.8,1.7-2.3,2.7c-0.5-1.2-1.6-2.2-2.1-3.5c-0.8-1.4-1.2-3.1-2-4.5c0.7,0.8,2.4-0.1,2.4,1.5
		c0.1,0.1,0.3,0.1,0.4,0.1c0.2-0.2,0.2-0.3,0.5-0.1c0.1,0.3,0.8,0.4,0.3,0.7C62.6,77.1,63.1,77.7,63.7,77.8 M71.9,99.3l1.3,0.6
		c-4.8-1.2-10-2.8-14.1-6.3c-0.7-0.4-1.2-1.3-2-1.4c1.9-1.6,3.9-3.6,5.5-5.6c0.7,1.3,2.3,2,3.5,2.9c2.1,1,4.3,2.7,6.7,2.2
		C72,92,71.3,92.4,70.7,93c-0.3,0.7-0.2,1.8-1.2,2.2C69.5,96.9,71,98.2,71.9,99.3 M54.3,89.6L54,87.9c-1.6-1.4-1.1-3.8-1.3-5.6
		c-1.1-0.9-0.2-2.3-1-3.3c0-1.6-2.5-2.2-1.7-3.9c-0.3-0.4-0.7-1-0.3-1.6c0.5-0.6,1.6,0.1,1.9-0.8l0.2-1.5c0.6-0.3,1.4,0.4,1.7-0.4
		c0.6-1.4-2-3.1,0.2-3.8c0.8-0.1,1.8-0.3,2.1,0.7c0.2,1.1,0.4,2.2,0.1,3.3c0.7,0.3,0.1,0.9,0.1,1.4c-0.4,0.2-0.9,0.6-1.4,0.5
		c-0.2-0.4-0.6-1-1.1-0.9c-0.4,0.6,0.2,1.2,0.1,1.8c-0.1,0.4,0,0.8-0.3,1.1c-0.2-0.1-0.4-0.2-0.7-0.2c-0.5,0.2-0.2,0.8-0.1,1.1
		c0.5,0.3,0.8,0.8,1.4,0.8l0.3-0.3c-0.1-0.9,0.3-1.6,0.4-2.5l0.8,0.4c0.7,3.4,2.3,6.5,4.3,9.5l1,1c-2.5,2.2-5,4.8-7.1,7.2V92
		c0-0.1-0.1-0.5-0.4-0.4C52.9,90.4,54.6,90.7,54.3,89.6 M58.2,56.9c-0.8,0.4-1.4,1.2-1.9,1.9c-0.7,0.4-1.5,0.4-2.1,1.1
		c0,0.3,0.4,0.7,0,0.9c-0.6,0.6-2-0.2-2.3,1c-0.1,1-1.3,1.6-1.2,2.7c-0.7,0.4-0.5,1.3-0.5,2c0.4,0.4-0.2,1.2,0.5,1.6
		c-1.1-0.1-2.5-0.3-3.5,0.1c0.5-1.2,0.4-2.8,0.7-4.1c1-5.7,3.6-10.7,7.4-15.3c1.9,1.9,4,4.1,6.1,5.7C59.8,54.6,59.8,56.9,58.2,56.9
		 M75.2,86.7c-0.4,0.6-0.1,1.6-0.3,2.3c-3.7-0.6-7-2.2-9.9-4.6c1.7-1.8,3.9-3.6,5.1-5.5c0.2,0.9,1.2,1.3,1.9,1.7
		c1.5,0.7,3.3,1.7,4.9,1c-0.1,0.1-0.2,0.3-0.4,0.3c0.5,0.5-0.4,1,0.2,1.4c0.1,0.4-0.4,0.3-0.4,0.6c0.3,0.5-0.1,1.4,0.7,1.5
		c0.2,0.3,0,0.7-0.3,0.7C76.2,86.1,75.5,86.1,75.2,86.7 M66.3,78.4c0.5-0.5,1-1.1,1.1-1.8l0.9,0.5C67.5,77.1,67.1,78,66.3,78.4
		L66.3,78.4z M74,55.9c-0.2-0.4,0.3-0.8-0.1-1c-1.3,0.6-0.8,2-1.7,2.9c-0.1,0.7-1.1,0.4-1.5,0.7c-0.3-0.5-1-0.5-1.5-0.2
		c-0.7,0-0.8-1.4-1.5-0.7c-0.2,0.2-0.1,0.7-0.6,0.5c-0.1-0.2-0.3-0.2-0.4-0.3c0-0.4,0.7-0.4,0.4-0.9c-0.5-0.9-1.6-0.7-2.2-1.4h-0.6
		c3.3-3.5,7.3-5,11.8-5.6c-0.1,2-0.2,4.2,0.4,6C75.8,55.2,74.9,56.2,74,55.9 M76.2,46.9c-1.4-0.3-2.8,0.3-4.2,0.5
		c-3.1,0.8-5.8,2.5-8.4,4.4c-0.1,0.2-0.3,0.4-0.4,0.6c-1.9-1.7-3.8-4-5.9-5.5c5.3-4.4,11.4-7.3,18.4-7.8l0.5-0.3
		C75.9,41.5,75.9,44.3,76.2,46.9 M46.3,27.4C55,21.1,64.9,17.3,76,16.9l-0.2,0.8l0.1,6.6l0.3,0.7C65.3,25.4,56,29.4,47.9,36.8
		l-0.1,0.4c-1.9-2-3.9-4.3-6.1-5.9h-0.2C43.1,30.3,44.6,28.5,46.3,27.4 M25.7,63.2C27.1,51.8,32,41.8,39.8,33l0.2,0.7
		c1.9,1.8,3.8,3.8,5.6,5.5c-1.6,1.1-2.5,2.8-3.7,4.2c-4.9,7-7.8,14.9-8.3,23.7l0.2,1.1C31,68,28,68,25.3,68.2
		C25.6,66.5,25.4,64.8,25.7,63.2 M32.1,95.5c-4-7.4-6.3-15.4-6.8-24.3l7.7,0.1l0.7-0.3c-0.1,0.4-0.1,0.9-0.1,1.5l-0.1-0.1
		c-0.2,0.2,0.2,0.2,0.1,0.4c0.1,2.9,0.7,5.7,1.3,8.4l0.4,0.6c-0.6-0.5-0.8-1.2-1.2-1.7c-0.6,0.1-1.3,0.3-1.8,0.7
		c0.3,0.8-0.5,0.5-0.8,0.8c-0.1-0.2-0.3-0.4-0.6-0.5c-0.6,0-1.2,0.1-1.4,0.7c0.1,0.4-0.4,0.6-0.5,0.9c-0.2,1.2-0.6,2.9,0.3,3.9
		c0,0.9,0.5,1.7,1.1,2.3c0.3,0,0.4-0.2,0.6-0.3c0.7,0.6,1.1,1.9,2.2,1.7c0.3-0.2,0.2-0.5,0.3-0.7c0.6,0.6,0.8,1.8,1.9,1.7
		c0.3,0.3,0.4,0.8,0.9,0.8c1.2-0.3,0.7,1.3,1.6,1.8c0.7,0.4,1,1.4,2,0.9l0.3-0.4c0.3,0.2,0.1,0.8,0.3,1.1c0.5,0.9,1.4,1.5,2.3,1.8
		c0.8,0.9,1.6,2,2.6,2.7l-0.4,0.1l-5.5,5.7C36.9,102.4,34.1,99.1,32.1,95.5 M71,121.7c-11.1-1.5-20.8-6.3-29.5-13.8l5.7-5.7l0.1-0.3
		c7.9,7.6,17.4,11.4,28.2,12.2l0.9-0.2l-0.3,0.4v7.5l0.4,0.7C74.8,121.8,72.8,122,71,121.7 M77.7,90.4c-0.6,0.1-1.1,0-1.6-0.2
		c-0.3,0-0.2-0.3-0.3-0.5c0.8,0,1.2-0.9,2-0.8c0.5-0.5,0.6-1.2,1.3-1.4c-0.2-0.7,0.7-0.2,0.9-0.7c0.3-0.2,0.6-0.5,0.9-0.3
		c0.6,0.8,1.7,0.5,2.2,1.4c0.3,0.1,0.4-0.2,0.3-0.4v-0.3c0.9-0.1,1.3,1.2,2.3,0.3c0.2-0.2,0.2-0.6,0-0.8c-0.1-0.1-0.2-0.1-0.3-0.2
		c0.6-0.3,1,1,1.8,0.5c0.6-0.5,1.1-1.2,1.9-1.2l0.2,0.3c0.1,1.7-1.3,2.7-2.5,3.4c-0.8,0.3-2.3,0.2-2.2,1.5c-0.9,0.8-1.8-0.5-2.9-0.1
		c-0.5-0.3,0-1-0.7-1.2C79.9,90.1,78.5,89,77.7,90.4 M79.8,104.4c1,0.4,2.7-0.4,3.3,0.7c-0.3,0.6-0.8,1.2-0.6,2c0.4,1,1,2.4,2.3,2.5
		c0.3,0.4,0.8,0.6,1.2,0.7c-2.2,0.4-4.6,0.2-6.6,0.9c0.3-2.2,0-4.6,0-6.8l-0.4-0.6C79.3,103.8,79.5,104.2,79.8,104.4 M79.9,122.1
		l-0.5,0.3c0.2-2.8,0.2-5.9,0-8.7c1.4,0.5,2.8-0.1,4.3-0.1l4.2-0.7c2.1,0.4,3.6,3.8,5.9,1.7c0.8-1,2.2-0.9,2.7-2.2
		c1.4-0.5,1.7-1.9,2.7-2.8c0.9-2.6,3.8-3,5.6-4.8c1.3-1.2,3-2.1,3.8-3.7l0.1,0.7l5.8,5.6C104.7,116.4,93.2,121.5,79.9,122.1
		 M130.6,71.4c-0.5,12.9-5.3,24.1-13.8,33.7l-0.2,0.4c-1.7-1.9-4.1-4.4-6.2-6c1.3-0.9,2.2-2.3,3.3-3.6c5.3-7.2,8.3-15.3,8.8-24.5
		l-0.3-0.7l0.5,0.3l7.9-0.1l0.4-0.2L130.6,71.4z"/>
	<path class="st1" d="M102.5,28c0,0.3,0,0.6,0.2,0.8c1.2,0.4,1.3,2.1,2.8,1.7c0.4-0.5-0.3-1-0.1-1.7c-0.2-0.6-0.7-0.8-1.2-1
		C103.5,28.5,103,27.4,102.5,28"/>
	<path class="st1" d="M80.4,23.3c1.5,1.9,4,0.8,5.8,0.5c1.3,0.6,2.6-0.1,3.6-0.9v-0.2c-0.9-1.3-2.7-1.5-4.3-1.7l-4,1.7
		c-0.3-0.1-1-0.3-1.2,0.1C80.2,23,80.3,23.2,80.4,23.3"/>
</g>
<line class="st6" x1="162.1" y1="8.1" x2="162.1" y2="152.1"/>
</svg>
